<?xml version="1.0" encoding="UTF-8"?><svg id="Ebene_1" xmlns="http://www.w3.org/2000/svg" viewBox="0 0 10.49 15.18"><path d="M.84,10.28c-1.12,1.12-1.12,2.94,0,4.06,1.12,1.12,2.94,1.12,4.06,0,1.12-1.12,1.12-2.94,0-4.06,0,0,0,0,0,0-1.12-1.12-2.94-1.12-4.06,0,0,0,0,0,0,0"/><path d="M.84,.84c-1.12,1.12-1.12,2.94,0,4.06,1.12,1.12,2.94,1.12,4.06,0s1.12-2.94,0-4.06c0,0,0,0,0,0C3.78-.28,1.96-.28,.84,.84"/><path d="M5.59,5.58c-1.12,1.12-1.12,2.94,0,4.06,1.12,1.12,2.94,1.12,4.06,0,1.12-1.12,1.12-2.94,0-4.06,0,0,0,0,0,0-1.12-1.12-2.94-1.12-4.06,0h0"/></svg>