<?xml version="1.0" encoding="UTF-8"?>
<svg id="Layer_1" data-name="Layer 1" xmlns="http://www.w3.org/2000/svg" xmlns:xlink="http://www.w3.org/1999/xlink" viewBox="0 0 10.49 15.18">
  <defs>
    <style>
      .cls-1 {
        fill: none;
      }

      .cls-2 {
        clip-path: url(#clippath);
      }

      .cls-3 {
        fill: #f37021;
      }
    </style>
    <clipPath id="clippath">
      <polyline class="cls-1" points="127.18 15.17 0 15.17 0 0 127.18 0"/>
    </clipPath>
  </defs>
  <g class="cls-2">
    <g>
      <path class="cls-3" d="M.84,10.28c-1.12,1.12-1.12,2.94,0,4.06,1.12,1.12,2.94,1.12,4.06,0,1.12-1.12,1.12-2.94,0-4.06,0,0,0,0,0,0-1.12-1.12-2.94-1.12-4.06,0,0,0,0,0,0,0"/>
      <path class="cls-3" d="M.84,.84c-1.12,1.12-1.12,2.94,0,4.06,1.12,1.12,2.94,1.12,4.06,0s1.12-2.94,0-4.06c0,0,0,0,0,0C3.78-.28,1.96-.28,.84,.84"/>
      <path class="cls-3" d="M5.59,5.58c-1.12,1.12-1.12,2.94,0,4.06,1.12,1.12,2.94,1.12,4.06,0,1.12-1.12,1.12-2.94,0-4.06,0,0,0,0,0,0-1.12-1.12-2.94-1.12-4.06,0h0"/>
    </g>
  </g>
</svg>