<?xml version="1.0" encoding="UTF-8"?>
<svg id="Layer_1" data-name="Layer 1" xmlns="http://www.w3.org/2000/svg" viewBox="0 0 25.96 25.96">
  <defs>
    <style>
      .cls-1 {
        fill: #fff;
      }
    </style>
  </defs>
  <path class="cls-1" d="M12.98,25.96C5.82,25.95,0,20.15,0,12.98,0,5.82,5.82,0,12.98,0c7.17,0,12.97,5.82,12.98,12.98,0,7.17-5.82,12.97-12.98,12.98ZM12.98,1.59c-6.29,0-11.39,5.1-11.39,11.39,0,6.29,5.1,11.39,11.39,11.39,6.29,0,11.39-5.1,11.39-11.39,0-6.29-5.1-11.39-11.39-11.39Z"/>
  <path class="cls-1" d="M23.08,20.58c-.15,0-.29-.04-.41-.12-1.9-1.15-17.47-1.15-19.37,0-.38,.22-.86,.11-1.09-.27-.22-.38-.11-.86,.27-1.09,2.46-1.49,18.57-1.49,21.02,0,.37,.23,.49,.72,.27,1.09-.14,.24-.4,.38-.68,.38h0Z"/>
  <path class="cls-1" d="M12.98,8.8c-4.92,0-9.84-.4-11.02-1.2-.36-.25-.45-.74-.21-1.1,.25-.36,.74-.45,1.1-.21,1.8,1.22,18.46,1.22,20.26,0,.36-.24,.85-.15,1.1,.21,.24,.36,.15,.85-.21,1.1-1.18,.8-6.1,1.2-11.01,1.2Z"/>
  <path class="cls-1" d="M12.98,25.96c-2.18,0-6.62-6.01-6.62-12.98S10.8,0,12.98,0s6.63,6.01,6.63,12.98-4.45,12.98-6.63,12.98ZM12.98,1.59c-1.04,.08-5.03,5.08-5.03,11.39s3.99,11.31,5.04,11.39c1.04-.08,5.03-5.08,5.03-11.39S14.03,1.67,12.98,1.59h0Z"/>
  <path class="cls-1" d="M25.17,14.31H.79c-.44,0-.79-.36-.79-.79,0-.44,.36-.79,.79-.79H25.17c.44,0,.79,.36,.79,.79,0,.44-.36,.79-.79,.79Z"/>
</svg>