<?xml version="1.0" encoding="utf-8"?>
<!-- Generator: Adobe Illustrator 27.0.1, SVG Export Plug-In . SVG Version: 6.00 Build 0)  -->
<svg version="1.1" id="Ebene_4" xmlns="http://www.w3.org/2000/svg" xmlns:xlink="http://www.w3.org/1999/xlink" x="0px" y="0px"
	 viewBox="0 0 383.6 83.2" style="enable-background:new 0 0 383.6 83.2;" xml:space="preserve">
<style type="text/css">
	.st0{fill:#203062;}
	.st1{fill:#F37021;}
</style>
<g>
	<path class="st0" d="M213.2,72.9c0-6.4,4.2-10.3,10.5-10.3c2.8,0,5.8,0.6,8,2.5l-1.8,2.4c-1.8-1.2-4-1.8-6.2-1.8
		c-4.4,0-6.7,2.9-6.7,7.2s2.3,7.2,6.7,7.2c1.4,0,3.3-0.2,4.6-1v-4.5h-4.3v-3.1h7.8v9.4c-2.1,1.9-5.4,2.3-8,2.3
		C217.3,83.2,213.2,79.3,213.2,72.9z"/>
	<path class="st0" d="M253.6,63.1v3.1h-10.3v5h9.8v3.1h-9.8v5.4h10.4v3.1h-14.1V63.1H253.6z"/>
	<path class="st0" d="M261.7,82.8V63.1h8.3c4.1,0,7.4,1.6,7.4,6.2c0,3.1-1.6,4.9-4.5,5.7l4.6,7.8h-4.2l-4.3-7.3h-3.6v7.3H261.7z
		 M265.4,72.4h4.6c2.2,0,3.7-0.6,3.7-3.1s-1.4-3.1-3.7-3.1h-4.6V72.4z"/>
	<path class="st0" d="M285.2,63.1h5.1L296,77l5.8-13.9h5.1v19.7h-3.7V68.8l-5.7,13.9h-2.9l-5.7-13.9v13.9h-3.7V63.1z"/>
	<path class="st0" d="M322.2,63.1h3l8.3,19.7h-3.9l-1.9-4.6h-8.2l-1.9,4.6h-3.9L322.2,63.1z M320.9,75.1h5.6l-2.8-6.9L320.9,75.1z"
		/>
	<path class="st0" d="M345.3,63.1l8.8,14.6V63.1h3.7v19.7h-4.7l-8.8-14.6v14.6h-3.7V63.1H345.3z"/>
	<path class="st0" d="M364.8,63.1h4l5.4,8.3l5.4-8.3h4l-7.5,11.5v8.2h-3.7v-8.2L364.8,63.1z"/>
</g>
<g>
	<path class="st0" d="M0.4,34.2c-0.6,0.6-0.6,1.5,0,2.1c0.6,0.6,1.5,0.6,2.1,0c0.6-0.6,0.6-1.5,0-2.1C1.9,33.6,1,33.6,0.4,34.2"/>
	<path class="st1" d="M31.1,13.3c-2.1,2.1-2.1,5.6,0,7.8c2.1,2.1,5.6,2.1,7.8,0c2.1-2.1,2.1-5.6,0-7.8
		C36.7,11.2,33.2,11.2,31.1,13.3"/>
	<path class="st0" d="M14.4,50.4c-1.5,1.5-1.5,3.9,0,5.4c1.5,1.5,3.9,1.5,5.4,0c1.5-1.5,1.5-3.9,0-5.4
		C18.4,48.9,15.9,48.9,14.4,50.4"/>
	<path class="st0" d="M14.4,50.4c-1.5,1.5-1.5,3.9,0,5.4c1.5,1.5,3.9,1.5,5.4,0c1.5-1.5,1.5-3.9,0-5.4
		C18.4,48.9,15.9,48.9,14.4,50.4"/>
	<path class="st0" d="M6.5,6.6c-0.8,0.8-0.8,2.2,0,3s2.2,0.8,3,0c0.8-0.8,0.8-2.2,0-3C8.7,5.8,7.4,5.8,6.5,6.6"/>
	<path class="st0" d="M15.6,0.6c-0.8,0.8-0.8,2.2,0,3c0.8,0.8,2.2,0.8,3,0c0.8-0.8,0.8-2.2,0-3C17.7-0.2,16.4-0.2,15.6,0.6"/>
	<path class="st0" d="M24.4,6.7c-0.8,0.8-0.8,2.2,0,3c0.8,0.8,2.2,0.8,3,0c0.8-0.8,0.8-2.2,0-3C26.6,5.9,25.2,5.9,24.4,6.7"/>
	<path class="st0" d="M50.8,33.7c-0.8,0.8-0.8,2.2,0,3c0.8,0.8,2.2,0.8,3,0c0.8-0.8,0.8-2.2,0-3C53,32.8,51.6,32.8,50.8,33.7"/>
	<path class="st1" d="M31.1,31.3c-2.1,2.1-2.1,5.6,0,7.8c2.1,2.1,5.6,2.1,7.8,0c2.1-2.1,2.1-5.6,0-7.8
		C36.7,29.2,33.2,29.2,31.1,31.3"/>
	<path class="st1" d="M40.1,22.4c-2.1,2.1-2.1,5.6,0,7.8c2.1,2.1,5.6,2.1,7.8,0c2.1-2.1,2.1-5.6,0-7.8
		C45.7,20.2,42.2,20.2,40.1,22.4"/>
	<path class="st0" d="M14.4,32.6c-1.5,1.5-1.5,3.9,0,5.4c1.5,1.5,3.9,1.5,5.4,0c1.5-1.5,1.5-3.9,0-5.4
		C18.3,31.1,15.9,31.1,14.4,32.6"/>
	<path class="st0" d="M32.3,50.4c-1.5,1.5-1.5,3.9,0,5.4c1.5,1.5,3.9,1.5,5.4,0c1.5-1.5,1.5-3.9,0-5.4
		C36.2,48.9,33.8,48.9,32.3,50.4"/>
	<path class="st0" d="M41.1,41.4c-1.5,1.5-1.5,3.9,0,5.4c1.5,1.5,3.9,1.5,5.4,0c1.5-1.5,1.5-3.9,0-5.4
		C45.1,39.9,42.6,39.9,41.1,41.4"/>
	<path class="st0" d="M23.2,41.4c-1.5,1.5-1.5,3.9,0,5.4c1.5,1.5,3.9,1.5,5.4,0c1.5-1.5,1.5-3.9,0-5.4
		C27.1,39.9,24.7,39.9,23.2,41.4"/>
	<path class="st0" d="M23.2,23.5c-1.5,1.5-1.5,3.9,0,5.4c1.5,1.5,3.9,1.5,5.4,0c1.5-1.5,1.5-3.9,0-5.4C27.1,22,24.7,22,23.2,23.5"/>
	<path class="st0" d="M5.3,41.5c-1.5,1.5-1.5,3.9,0,5.4c1.5,1.5,3.9,1.5,5.4,0c1.5-1.5,1.5-3.9,0-5.4C9.3,40,6.8,40,5.3,41.5"/>
	<path class="st0" d="M14.4,14.4c-1.5,1.5-1.5,3.9,0,5.4c1.5,1.5,3.9,1.5,5.4,0c1.5-1.5,1.5-3.9,0-5.4
		C18.4,12.9,15.9,12.9,14.4,14.4"/>
	<path class="st0" d="M0.4,16.2c-0.6,0.6-0.6,1.5,0,2.1c0.6,0.6,1.5,0.6,2.1,0c0.6-0.6,0.6-1.5,0-2.1C1.9,15.6,1,15.6,0.4,16.2"/>
	<path class="st0" d="M6.5,24.8c-0.8,0.8-0.8,2.2,0,3c0.8,0.8,2.2,0.8,3,0c0.8-0.8,0.8-2.2,0-3C8.7,23.9,7.3,23.9,6.5,24.8"/>
	<path class="st0" d="M50.8,15.7c-0.8,0.8-0.8,2.2,0,3c0.8,0.8,2.2,0.8,3,0c0.8-0.8,0.8-2.2,0-3C53,14.9,51.6,14.9,50.8,15.7"/>
	<path class="st0" d="M42.4,6.8c-0.8,0.8-0.8,2.2,0,3c0.8,0.8,2.2,0.8,3,0c0.8-0.8,0.8-2.2,0-3C44.6,6,43.3,6,42.4,6.8"/>
	<path class="st0" d="M33.5,0.6c-0.8,0.8-0.8,2.2,0,3c0.8,0.8,2.2,0.8,3,0c0.8-0.8,0.8-2.2,0-3C35.7-0.2,34.3-0.2,33.5,0.6"/>
	<path class="st0" d="M32.3,50.4c-1.5,1.5-1.5,3.9,0,5.4c1.5,1.5,3.9,1.5,5.4,0c1.5-1.5,1.5-3.9,0-5.4
		C36.2,48.9,33.8,48.9,32.3,50.4"/>
	<path class="st0" d="M41.1,41.4c-1.5,1.5-1.5,3.9,0,5.4c1.5,1.5,3.9,1.5,5.4,0c1.5-1.5,1.5-3.9,0-5.4
		C45.1,39.9,42.6,39.9,41.1,41.4"/>
	<path class="st0" d="M23.2,41.4c-1.5,1.5-1.5,3.9,0,5.4c1.5,1.5,3.9,1.5,5.4,0c1.5-1.5,1.5-3.9,0-5.4
		C27.1,39.9,24.7,39.9,23.2,41.4"/>
	<path class="st0" d="M5.3,41.5c-1.5,1.5-1.5,3.9,0,5.4c1.5,1.5,3.9,1.5,5.4,0c1.5-1.5,1.5-3.9,0-5.4C9.3,40,6.8,40,5.3,41.5"/>
	<path class="st0" d="M157.2,51.4c-0.6,1.2-1.1,2.4-1.6,3.5c-0.5,1.1-1,2.1-1.6,3.2c-1,1.9-2.1,3.9-3.1,5.8c-0.8,1.3-1.6,2.6-2.4,4
		c-0.6,1.1-1.3,2.1-1.9,3.2c-1,1.6-2.1,3.3-3.2,4.9c-1.1,1.5-2.2,3.1-3.5,4.5c-1.6,1.7-3.8,2.5-6.2,2.4c-2.2-0.1-3.4-0.9-4-3.2
		c-0.3-1.5-0.5-3-0.7-4.6c-0.3-2.1-0.5-4.2-0.8-6.2c-0.2-1.4-0.4-2.8-0.6-4.2c-0.3-1.6-0.6-3.2-1-4.9c-0.4-1.8-0.8-3.6-1.3-5.3
		c-0.4-1.4-0.8-2.7-1.3-4.1c-0.6-1.7-1.2-3.4-1.8-5.1c-0.6-1.5-1.3-3-1.9-4.5c-0.5-1.1-0.8-2.2-1.4-3.1c-0.6-1.1-1.4-2.2-2.3-3.1
		c-1.3-1.4-3.2-2-5-2.6c-1.2-0.4-2.2-1-1.9-2.3c0.1-0.5,0.5-1.1,1-1.3c2.1-1.3,4.4-1.4,6.8-1.4c2.9,0.1,5.7,0.5,8.1,2.2
		c1.2,0.8,2.2,2,3.2,3.1c0.7,0.8,1.3,1.8,1.8,2.8c0.7,1.3,1.2,2.7,1.9,4c0.3,0.7,0.7,1.5,1,2.2c0.7,1.6,1.3,3.3,2,4.9
		c0.4,1,0.8,2,1.1,3c0.6,1.8,1.2,3.6,1.7,5.5c0.4,1.5,0.8,3,1.2,4.5c0.3,1.1,0.5,2.3,0.7,3.4c0.4,2,0.7,4,1.1,6
		c0.1,0.4,0.1,0.9,0.2,1.3c0,0.1,0,0.2,0.1,0.2c0.1,0,0.2-0.1,0.2-0.2c0.8-2,1.6-3.9,2.4-5.9c0.7-1.8,1.3-3.6,2-5.5
		c0.5-1.5,1.1-3.1,1.5-4.7c0.6-2.4,1.2-4.9,1.7-7.4c0.6-2.9,1-5.8,0.8-8.8c-0.1-1.7-0.4-3.4-1.1-4.9c-0.7-1.5-1.7-2.9-2.9-4.1
		c-0.3-0.3-0.1-0.4,0.2-0.5c2.2-0.9,4.4-1.3,6.7-1.2c2.7,0.1,5.1,1.2,6.8,3.4c1.6,2,2.1,4.4,1.8,6.9c-0.3,2-0.8,4-1.3,6
		c-0.2,0.9-0.5,1.7-0.8,2.5c-0.1,0.3,0.2,0.6,0.4,0.9c1.2,2,2.5,4.1,3.7,6.1c0.9,1.6,1.8,3.3,2.7,5c1,1.9,1.9,3.8,2.8,5.8
		c1.1,2.4,2.1,4.8,3,7.3c0,0.1,0.3,0.7,0.3,0.7c0.1,0,0.2-0.1,0.3-0.4c0.7-1.6,1.3-3.2,2-4.9c0.5-1.2,1.1-2.5,1.5-3.7
		c0.8-2.2,1.6-4.5,2.3-6.7c0.5-1.7,1-3.4,1.5-5.2c0.4-1.5,0.7-3,0.9-4.6c0.3-2,0.7-3.9,0.8-5.9c0.1-1.5-0.1-2.9-0.3-4.4
		c-0.2-1.1-0.5-2.3-1-3.3c-0.5-1-1.1-2-1.8-2.8c-0.3-0.3-0.6-0.7-0.9-1c-0.1-0.1-0.1-0.3,0.1-0.4c1.1-0.4,2.2-0.8,3.4-1
		c1.1-0.2,2.3-0.3,3.4-0.3c2.7,0.1,5.1,1.2,6.8,3.4c1.1,1.5,1.7,3.1,1.9,5c0.1,2.3-0.2,4.4-0.9,6.6c-0.7,2.2-1.5,4.4-2.3,6.6
		c-0.5,1.4-1.2,2.8-1.9,4.2c-0.8,1.6-1.5,3.2-2.3,4.8c-0.7,1.4-1.5,2.7-2.3,4.1c-0.9,1.6-1.8,3.2-2.8,4.7c-1,1.6-1.9,3.2-2.9,4.8
		c-1.1,1.7-2.2,3.4-3.4,5c-1.1,1.5-2.1,3-3.4,4.3c-1.1,1.2-2.5,2-4.1,2.2c-1.4,0.2-2.7,0.3-4.1-0.2c-1.4-0.5-2.1-1.6-2.3-2.9
		c-0.3-2.4-0.4-4.8-0.5-7.3c-0.1-2-0.2-4-0.4-5.9c-0.2-2.2-0.4-4.3-0.7-6.5c-0.2-1.5-0.5-2.9-0.8-4.4c-0.2-1.2-0.5-2.4-0.8-3.7
		C157.4,51.8,157.3,51.7,157.2,51.4"/>
	<path class="st0" d="M82.5,82.9c-2.4,0-4.7-0.3-7-0.5c-4.2-0.5-8.1-1.5-11.3-3.7c-2.4-1.6-3.9-3.8-4.2-6.5
		c-0.3-1.9-0.1-3.8,0.8-5.7c0.9-1.8,2.4-3,4.4-3.6c2-0.6,4-0.5,5.9-0.1c1.2,0.3,2.3,0.7,3.4,1c0.3,0.1,0.4,0.2,0.2,0.5
		c-0.8,1.7-1.5,3.5-1.8,5.3c-0.2,1.5-0.1,2.9,0.5,4.1c0.8,1.5,2.1,2.4,3.8,2.9c2.9,0.9,6.1,0.9,9.2,0.6c1.8-0.2,3.6-0.6,5.2-1.4
		c1.8-0.9,3-2.3,3.5-4.1c0.7-2.6-0.1-4.7-1.8-6.4c-1.7-1.8-3.9-3-6.2-4.1c-3.5-1.7-7-3.3-10.4-5c-2.8-1.4-5.3-2.9-7.5-5
		c-1.9-1.8-3.3-3.8-3.8-6.4c-1.2-6,1.6-11.8,7.6-15.2c2-1.2,4.1-2,6.3-2.5c4.3-1.1,8.6-1.2,12.9-0.9c2.1,0.2,4.2,0.5,6.2,1.1
		c2.8,0.8,5.5,1.9,7.7,3.9c1.6,1.4,2.7,3.1,3,5.3c0.2,1.6,0.1,3.3-0.7,4.8c-0.7,1.3-1.8,2.1-3.3,2.6c-1.4,0.4-2.7,0.4-4,0.1
		c-1.8-0.5-2.8-1.8-3.4-3.4c-0.4-1.1-0.7-2.3-1-3.4c-0.8-2.6-2.6-4.3-5.2-5.1c-2.7-0.8-5.4-0.8-8.3-0.2c-1.4,0.3-2.8,0.9-3.9,2.1
		c-1.2,1.3-1.5,2.8-1.3,4.4c0.2,1.9,1.2,3.2,2.6,4.4c1.7,1.5,3.7,2.6,5.8,3.6c3.2,1.5,6.5,2.9,9.7,4.5c2.8,1.3,5.5,2.9,7.9,4.9
		c2,1.7,3.6,3.8,4.4,6.3c0.7,2,0.8,4.1,0.4,6.2c-0.4,2.3-1.3,4.5-2.9,6.4c-2.1,2.5-4.8,4.3-8,5.6c-2.7,1.1-5.5,1.8-8.4,2.2
		C87,82.7,84.7,82.9,82.5,82.9"/>
</g>
</svg>
