<?xml version="1.0" encoding="UTF-8"?><svg id="Ebene_4" xmlns="http://www.w3.org/2000/svg" viewBox="0 0 383.65 83.2"><defs><style>.cls-1{fill:#f37021;}.cls-2{fill:#203062;}</style></defs><g><path class="cls-2" d="m213.25,72.9c0-6.4,4.2-10.3,10.5-10.3,2.8,0,5.8.6,8,2.5l-1.8,2.4c-1.8-1.2-4-1.8-6.2-1.8-4.4,0-6.7,2.9-6.7,7.2s2.3,7.2,6.7,7.2c1.4,0,3.3-.2,4.6-1v-4.5h-4.3v-3.1h7.8v9.4c-2.1,1.9-5.4,2.3-8,2.3-6.5,0-10.6-3.9-10.6-10.3Z"/><path class="cls-2" d="m253.65,63.1v3.1h-10.3v5h9.8v3.1h-9.8v5.4h10.4v3.1h-14.1v-19.7h14Z"/><path class="cls-2" d="m261.75,82.8v-19.7h8.3c4.1,0,7.4,1.6,7.4,6.2,0,3.1-1.6,4.9-4.5,5.7l4.6,7.8h-4.2l-4.3-7.3h-3.6v7.3s-3.7,0-3.7,0Zm3.7-10.4h4.6c2.2,0,3.7-.6,3.7-3.1s-1.4-3.1-3.7-3.1h-4.6v6.2Z"/><path class="cls-2" d="m285.25,63.1h5.1l5.7,13.9,5.8-13.9h5.1v19.7h-3.7v-14l-5.7,13.9h-2.9l-5.7-13.9v13.9h-3.7v-19.6h0Z"/><path class="cls-2" d="m322.25,63.1h3l8.3,19.7h-3.9l-1.9-4.6h-8.2l-1.9,4.6h-3.9l8.5-19.7Zm-1.3,12h5.6l-2.8-6.9-2.8,6.9Z"/><path class="cls-2" d="m345.35,63.1l8.8,14.6v-14.6h3.7v19.7h-4.7l-8.8-14.6v14.6h-3.7v-19.7h4.7Z"/><path class="cls-2" d="m364.85,63.1h4l5.4,8.3,5.4-8.3h4l-7.5,11.5v8.2h-3.7v-8.2l-7.6-11.5Z"/></g><g><path class="cls-2" d="m.45,34.2c-.6.6-.6,1.5,0,2.1.6.6,1.5.6,2.1,0,.6-.6.6-1.5,0-2.1-.6-.6-1.5-.6-2.1,0"/><path class="cls-1" d="m31.15,13.3c-2.1,2.1-2.1,5.6,0,7.8,2.1,2.1,5.6,2.1,7.8,0,2.1-2.1,2.1-5.6,0-7.8-2.2-2.1-5.7-2.1-7.8,0"/><path class="cls-2" d="m14.45,50.4c-1.5,1.5-1.5,3.9,0,5.4s3.9,1.5,5.4,0,1.5-3.9,0-5.4c-1.4-1.5-3.9-1.5-5.4,0"/><path class="cls-2" d="m14.45,50.4c-1.5,1.5-1.5,3.9,0,5.4s3.9,1.5,5.4,0,1.5-3.9,0-5.4c-1.4-1.5-3.9-1.5-5.4,0"/><path class="cls-2" d="m6.55,6.6c-.8.8-.8,2.2,0,3s2.2.8,3,0,.8-2.2,0-3-2.1-.8-3,0"/><path class="cls-2" d="m15.65.6c-.8.8-.8,2.2,0,3,.8.8,2.2.8,3,0,.8-.8.8-2.2,0-3-.9-.8-2.2-.8-3,0"/><path class="cls-2" d="m24.45,6.7c-.8.8-.8,2.2,0,3s2.2.8,3,0,.8-2.2,0-3c-.8-.8-2.2-.8-3,0"/><path class="cls-2" d="m50.85,33.7c-.8.8-.8,2.2,0,3s2.2.8,3,0,.8-2.2,0-3c-.8-.9-2.2-.9-3,0"/><path class="cls-1" d="m31.15,31.3c-2.1,2.1-2.1,5.6,0,7.8,2.1,2.1,5.6,2.1,7.8,0,2.1-2.1,2.1-5.6,0-7.8-2.2-2.1-5.7-2.1-7.8,0"/><path class="cls-1" d="m40.15,22.4c-2.1,2.1-2.1,5.6,0,7.8,2.1,2.1,5.6,2.1,7.8,0,2.1-2.1,2.1-5.6,0-7.8-2.2-2.2-5.7-2.2-7.8,0"/><path class="cls-2" d="m14.45,32.6c-1.5,1.5-1.5,3.9,0,5.4s3.9,1.5,5.4,0,1.5-3.9,0-5.4c-1.5-1.5-3.9-1.5-5.4,0"/><path class="cls-2" d="m32.35,50.4c-1.5,1.5-1.5,3.9,0,5.4s3.9,1.5,5.4,0,1.5-3.9,0-5.4-3.9-1.5-5.4,0"/><path class="cls-2" d="m41.15,41.4c-1.5,1.5-1.5,3.9,0,5.4s3.9,1.5,5.4,0,1.5-3.9,0-5.4c-1.4-1.5-3.9-1.5-5.4,0"/><path class="cls-2" d="m23.25,41.4c-1.5,1.5-1.5,3.9,0,5.4s3.9,1.5,5.4,0,1.5-3.9,0-5.4-3.9-1.5-5.4,0"/><path class="cls-2" d="m23.25,23.5c-1.5,1.5-1.5,3.9,0,5.4s3.9,1.5,5.4,0,1.5-3.9,0-5.4-3.9-1.5-5.4,0"/><path class="cls-2" d="m5.35,41.5c-1.5,1.5-1.5,3.9,0,5.4s3.9,1.5,5.4,0,1.5-3.9,0-5.4c-1.4-1.5-3.9-1.5-5.4,0"/><path class="cls-2" d="m14.45,14.4c-1.5,1.5-1.5,3.9,0,5.4s3.9,1.5,5.4,0,1.5-3.9,0-5.4c-1.4-1.5-3.9-1.5-5.4,0"/><path class="cls-2" d="m.45,16.2c-.6.6-.6,1.5,0,2.1.6.6,1.5.6,2.1,0,.6-.6.6-1.5,0-2.1-.6-.6-1.5-.6-2.1,0"/><path class="cls-2" d="m6.55,24.8c-.8.8-.8,2.2,0,3s2.2.8,3,0,.8-2.2,0-3c-.8-.9-2.2-.9-3,0"/><path class="cls-2" d="m50.85,15.7c-.8.8-.8,2.2,0,3,.8.8,2.2.8,3,0s.8-2.2,0-3c-.8-.8-2.2-.8-3,0"/><path class="cls-2" d="m42.45,6.8c-.8.8-.8,2.2,0,3s2.2.8,3,0,.8-2.2,0-3c-.8-.8-2.1-.8-3,0"/><path class="cls-2" d="m33.55.6c-.8.8-.8,2.2,0,3,.8.8,2.2.8,3,0,.8-.8.8-2.2,0-3-.8-.8-2.2-.8-3,0"/><path class="cls-2" d="m32.35,50.4c-1.5,1.5-1.5,3.9,0,5.4s3.9,1.5,5.4,0,1.5-3.9,0-5.4-3.9-1.5-5.4,0"/><path class="cls-2" d="m41.15,41.4c-1.5,1.5-1.5,3.9,0,5.4s3.9,1.5,5.4,0,1.5-3.9,0-5.4c-1.4-1.5-3.9-1.5-5.4,0"/><path class="cls-2" d="m23.25,41.4c-1.5,1.5-1.5,3.9,0,5.4s3.9,1.5,5.4,0,1.5-3.9,0-5.4-3.9-1.5-5.4,0"/><path class="cls-2" d="m5.35,41.5c-1.5,1.5-1.5,3.9,0,5.4s3.9,1.5,5.4,0,1.5-3.9,0-5.4c-1.4-1.5-3.9-1.5-5.4,0"/><path class="cls-2" d="m157.25,51.4c-.6,1.2-1.1,2.4-1.6,3.5s-1,2.1-1.6,3.2c-1,1.9-2.1,3.9-3.1,5.8-.8,1.3-1.6,2.6-2.4,4-.6,1.1-1.3,2.1-1.9,3.2-1,1.6-2.1,3.3-3.2,4.9-1.1,1.5-2.2,3.1-3.5,4.5-1.6,1.7-3.8,2.5-6.2,2.4-2.2-.1-3.4-.9-4-3.2-.3-1.5-.5-3-.7-4.6-.3-2.1-.5-4.2-.8-6.2-.2-1.4-.4-2.8-.6-4.2-.3-1.6-.6-3.2-1-4.9-.4-1.8-.8-3.6-1.3-5.3-.4-1.4-.8-2.7-1.3-4.1-.6-1.7-1.2-3.4-1.8-5.1-.6-1.5-1.3-3-1.9-4.5-.5-1.1-.8-2.2-1.4-3.1-.6-1.1-1.4-2.2-2.3-3.1-1.3-1.4-3.2-2-5-2.6-1.2-.4-2.2-1-1.9-2.3.1-.5.5-1.1,1-1.3,2.1-1.3,4.4-1.4,6.8-1.4,2.9.1,5.7.5,8.1,2.2,1.2.8,2.2,2,3.2,3.1.7.8,1.3,1.8,1.8,2.8.7,1.3,1.2,2.7,1.9,4,.3.7.7,1.5,1,2.2.7,1.6,1.3,3.3,2,4.9.4,1,.8,2,1.1,3,.6,1.8,1.2,3.6,1.7,5.5.4,1.5.8,3,1.2,4.5.3,1.1.5,2.3.7,3.4.4,2,.7,4,1.1,6,.1.4.1.9.2,1.3,0,.1,0,.2.1.2s.2-.1.2-.2c.8-2,1.6-3.9,2.4-5.9.7-1.8,1.3-3.6,2-5.5.5-1.5,1.1-3.1,1.5-4.7.6-2.4,1.2-4.9,1.7-7.4.6-2.9,1-5.8.8-8.8-.1-1.7-.4-3.4-1.1-4.9-.7-1.5-1.7-2.9-2.9-4.1-.3-.3-.1-.4.2-.5,2.2-.9,4.4-1.3,6.7-1.2,2.7.1,5.1,1.2,6.8,3.4,1.6,2,2.1,4.4,1.8,6.9-.3,2-.8,4-1.3,6-.2.9-.5,1.7-.8,2.5-.1.3.2.6.4.9,1.2,2,2.5,4.1,3.7,6.1.9,1.6,1.8,3.3,2.7,5,1,1.9,1.9,3.8,2.8,5.8,1.1,2.4,2.1,4.8,3,7.3,0,.1.3.7.3.7.1,0,.2-.1.3-.4.7-1.6,1.3-3.2,2-4.9.5-1.2,1.1-2.5,1.5-3.7.8-2.2,1.6-4.5,2.3-6.7.5-1.7,1-3.4,1.5-5.2.4-1.5.7-3,.9-4.6.3-2,.7-3.9.8-5.9.1-1.5-.1-2.9-.3-4.4-.2-1.1-.5-2.3-1-3.3s-1.1-2-1.8-2.8c-.3-.3-.6-.7-.9-1-.1-.1-.1-.3.1-.4,1.1-.4,2.2-.8,3.4-1,1.1-.2,2.3-.3,3.4-.3,2.7.1,5.1,1.2,6.8,3.4,1.1,1.5,1.7,3.1,1.9,5,.1,2.3-.2,4.4-.9,6.6-.7,2.2-1.5,4.4-2.3,6.6-.5,1.4-1.2,2.8-1.9,4.2-.8,1.6-1.5,3.2-2.3,4.8-.7,1.4-1.5,2.7-2.3,4.1-.9,1.6-1.8,3.2-2.8,4.7-1,1.6-1.9,3.2-2.9,4.8-1.1,1.7-2.2,3.4-3.4,5-1.1,1.5-2.1,3-3.4,4.3-1.1,1.2-2.5,2-4.1,2.2-1.4.2-2.7.3-4.1-.2-1.4-.5-2.1-1.6-2.3-2.9-.3-2.4-.4-4.8-.5-7.3-.1-2-.2-4-.4-5.9-.2-2.2-.4-4.3-.7-6.5-.2-1.5-.5-2.9-.8-4.4-.2-1.2-.5-2.4-.8-3.7-.1.1-.2,0-.3-.3"/><path class="cls-2" d="m82.55,82.9c-2.4,0-4.7-.3-7-.5-4.2-.5-8.1-1.5-11.3-3.7-2.4-1.6-3.9-3.8-4.2-6.5-.3-1.9-.1-3.8.8-5.7.9-1.8,2.4-3,4.4-3.6s4-.5,5.9-.1c1.2.3,2.3.7,3.4,1,.3.1.4.2.2.5-.8,1.7-1.5,3.5-1.8,5.3-.2,1.5-.1,2.9.5,4.1.8,1.5,2.1,2.4,3.8,2.9,2.9.9,6.1.9,9.2.6,1.8-.2,3.6-.6,5.2-1.4,1.8-.9,3-2.3,3.5-4.1.7-2.6-.1-4.7-1.8-6.4-1.7-1.8-3.9-3-6.2-4.1-3.5-1.7-7-3.3-10.4-5-2.8-1.4-5.3-2.9-7.5-5-1.9-1.8-3.3-3.8-3.8-6.4-1.2-6,1.6-11.8,7.6-15.2,2-1.2,4.1-2,6.3-2.5,4.3-1.1,8.6-1.2,12.9-.9,2.1.2,4.2.5,6.2,1.1,2.8.8,5.5,1.9,7.7,3.9,1.6,1.4,2.7,3.1,3,5.3.2,1.6.1,3.3-.7,4.8-.7,1.3-1.8,2.1-3.3,2.6-1.4.4-2.7.4-4,.1-1.8-.5-2.8-1.8-3.4-3.4-.4-1.1-.7-2.3-1-3.4-.8-2.6-2.6-4.3-5.2-5.1-2.7-.8-5.4-.8-8.3-.2-1.4.3-2.8.9-3.9,2.1-1.2,1.3-1.5,2.8-1.3,4.4.2,1.9,1.2,3.2,2.6,4.4,1.7,1.5,3.7,2.6,5.8,3.6,3.2,1.5,6.5,2.9,9.7,4.5,2.8,1.3,5.5,2.9,7.9,4.9,2,1.7,3.6,3.8,4.4,6.3.7,2,.8,4.1.4,6.2-.4,2.3-1.3,4.5-2.9,6.4-2.1,2.5-4.8,4.3-8,5.6-2.7,1.1-5.5,1.8-8.4,2.2-2.5.2-4.8.4-7,.4"/></g></svg>