<svg xmlns="http://www.w3.org/2000/svg" viewBox="0 0 383.65 83.2"><g transform="translate(0.05)">
<path class="a" d="M213.2,72.9c0-6.4,4.2-10.3,10.5-10.3a12.126,12.126,0,0,1,8,2.5l-1.8,2.4a11.229,11.229,0,0,0-6.2-1.8c-4.4,0-6.7,2.9-6.7,7.2s2.3,7.2,6.7,7.2a9.348,9.348,0,0,0,4.6-1V74.6H224V71.5h7.8v9.4c-2.1,1.9-5.4,2.3-8,2.3C217.3,83.2,213.2,79.3,213.2,72.9Z"/>
<path class="a" d="M253.6,63.1v3.1H243.3v5h9.8v3.1h-9.8v5.4h10.4v3.1H239.6V63.1Z"/>
<path class="a" d="M261.7,82.8V63.1H270c4.1,0,7.4,1.6,7.4,6.2,0,3.1-1.6,4.9-4.5,5.7l4.6,7.8h-4.2L269,75.5h-3.6v7.3h-3.7Zm3.7-10.4H270c2.2,0,3.7-.6,3.7-3.1s-1.4-3.1-3.7-3.1h-4.6Z"/>
<path class="a" d="M285.2,63.1h5.1L296,77l5.8-13.9h5.1V82.8h-3.7v-14l-5.7,13.9h-2.9l-5.7-13.9V82.7h-3.7V63.1Z"/>
<path class="a" d="M322.2,63.1h3l8.3,19.7h-3.9l-1.9-4.6h-8.2l-1.9,4.6h-3.9Zm-1.3,12h5.6l-2.8-6.9Z"/>
<path class="a" d="M345.3,63.1l8.8,14.6V63.1h3.7V82.8h-4.7l-8.8-14.6V82.8h-3.7V63.1Z"/>
<path class="a" d="M364.8,63.1h4l5.4,8.3,5.4-8.3h4l-7.5,11.5v8.2h-3.7V74.6Z"/>
<path class="a" d="M.4,34.2a1.45,1.45,0,0,0,0,2.1,1.45,1.45,0,0,0,2.1,0,1.45,1.45,0,0,0,0-2.1,1.45,1.45,0,0,0-2.1,0"/>
<path class="b" fill="#f37021" d="M31.1,13.3a5.515,5.515,0,1,0,7.8,0,5.616,5.616,0,0,0-7.8,0"/>
<path class="a" d="M14.4,50.4a3.818,3.818,0,1,0,5.4,0,3.8,3.8,0,0,0-5.4,0"/>
<path class="a" d="M14.4,50.4a3.818,3.818,0,1,0,5.4,0,3.8,3.8,0,0,0-5.4,0"/>
<path class="a" d="M6.5,6.6a2.121,2.121,0,0,0,3,3,2.121,2.121,0,0,0-3-3"/>
<path class="a" d="M15.6.6a2.175,2.175,0,0,0,0,3,2.175,2.175,0,0,0,3,0,2.175,2.175,0,0,0,0-3,2.174,2.174,0,0,0-3,0"/>
<path class="a" d="M24.4,6.7a2.121,2.121,0,1,0,3,0,2.175,2.175,0,0,0-3,0"/>
<path class="a" d="M50.8,33.7a2.121,2.121,0,1,0,3,0,2,2,0,0,0-3,0"/>
<path class="b" fill="#f37021" d="M31.1,31.3a5.515,5.515,0,1,0,7.8,0,5.616,5.616,0,0,0-7.8,0"/>
<path class="b" fill="#f37021" d="M40.1,22.4a5.515,5.515,0,1,0,7.8,0,5.434,5.434,0,0,0-7.8,0"/>
<path class="a" d="M14.4,32.6a3.818,3.818,0,1,0,5.4,0,3.8,3.8,0,0,0-5.4,0"/>
<path class="a" d="M32.3,50.4a3.818,3.818,0,1,0,5.4,0,3.8,3.8,0,0,0-5.4,0"/>
<path class="a" d="M41.1,41.4a3.818,3.818,0,1,0,5.4,0,3.8,3.8,0,0,0-5.4,0"/>
<path class="a" d="M23.2,41.4a3.818,3.818,0,1,0,5.4,0,3.8,3.8,0,0,0-5.4,0"/>
<path class="a" d="M23.2,23.5a3.818,3.818,0,1,0,5.4,0,3.8,3.8,0,0,0-5.4,0"/>
<path class="a" d="M5.3,41.5a3.818,3.818,0,1,0,5.4,0,3.8,3.8,0,0,0-5.4,0"/>
<path class="a" d="M14.4,14.4a3.818,3.818,0,1,0,5.4,0,3.8,3.8,0,0,0-5.4,0"/>
<path class="a" d="M.4,16.2a1.45,1.45,0,0,0,0,2.1,1.45,1.45,0,0,0,2.1,0,1.45,1.45,0,0,0,0-2.1,1.45,1.45,0,0,0-2.1,0"/>
<path class="a" d="M6.5,24.8a2.121,2.121,0,0,0,3,3,2.175,2.175,0,0,0,0-3,2,2,0,0,0-3,0"/>
<path class="a" d="M50.8,15.7a2.121,2.121,0,1,0,3,0,2.175,2.175,0,0,0-3,0"/>
<path class="a" d="M42.4,6.8a2.121,2.121,0,1,0,3,0,2.175,2.175,0,0,0-3,0"/>
<path class="a" d="M33.5.6a2.175,2.175,0,0,0,0,3,2.175,2.175,0,0,0,3,0,2.175,2.175,0,0,0,0-3,2.175,2.175,0,0,0-3,0"/>
<path class="a" d="M32.3,50.4a3.818,3.818,0,1,0,5.4,0,3.8,3.8,0,0,0-5.4,0"/>
<path class="a" d="M41.1,41.4a3.818,3.818,0,1,0,5.4,0,3.8,3.8,0,0,0-5.4,0"/>
<path class="a" d="M23.2,41.4a3.818,3.818,0,1,0,5.4,0,3.8,3.8,0,0,0-5.4,0"/>
<path class="a" d="M5.3,41.5a3.818,3.818,0,1,0,5.4,0,3.8,3.8,0,0,0-5.4,0"/>
<path class="a" d="M157.2,51.4c-.6,1.2-1.1,2.4-1.6,3.5s-1,2.1-1.6,3.2c-1,1.9-2.1,3.9-3.1,5.8-.8,1.3-1.6,2.6-2.4,4-.6,1.1-1.3,2.1-1.9,3.2-1,1.6-2.1,3.3-3.2,4.9a49.448,49.448,0,0,1-3.5,4.5,7.857,7.857,0,0,1-6.2,2.4c-2.2-.1-3.4-.9-4-3.2-.3-1.5-.5-3-.7-4.6-.3-2.1-.5-4.2-.8-6.2l-.6-4.2c-.3-1.6-.6-3.2-1-4.9-.4-1.8-.8-3.6-1.3-5.3-.4-1.4-.8-2.7-1.3-4.1l-1.8-5.1c-.6-1.5-1.3-3-1.9-4.5a22.246,22.246,0,0,0-1.4-3.1,13.86,13.86,0,0,0-2.3-3.1c-1.3-1.4-3.2-2-5-2.6-1.2-.4-2.2-1-1.9-2.3a1.887,1.887,0,0,1,1-1.3c2.1-1.3,4.4-1.4,6.8-1.4,2.9.1,5.7.5,8.1,2.2a18.723,18.723,0,0,1,3.2,3.1,13.412,13.412,0,0,1,1.8,2.8c.7,1.3,1.2,2.7,1.9,4,.3.7.7,1.5,1,2.2.7,1.6,1.3,3.3,2,4.9.4,1,.8,2,1.1,3,.6,1.8,1.2,3.6,1.7,5.5l1.2,4.5c.3,1.1.5,2.3.7,3.4.4,2,.7,4,1.1,6,.1.4.1.9.2,1.3,0,.1,0,.2.1.2a.215.215,0,0,0,.2-.2c.8-2,1.6-3.9,2.4-5.9.7-1.8,1.3-3.6,2-5.5.5-1.5,1.1-3.1,1.5-4.7.6-2.4,1.2-4.9,1.7-7.4a32.451,32.451,0,0,0,.8-8.8,13.477,13.477,0,0,0-1.1-4.9,14.567,14.567,0,0,0-2.9-4.1c-.3-.3-.1-.4.2-.5a15.6,15.6,0,0,1,6.7-1.2,8.721,8.721,0,0,1,6.8,3.4,9,9,0,0,1,1.8,6.9c-.3,2-.8,4-1.3,6a18.285,18.285,0,0,1-.8,2.5c-.1.3.2.6.4.9,1.2,2,2.5,4.1,3.7,6.1.9,1.6,1.8,3.3,2.7,5,1,1.9,1.9,3.8,2.8,5.8,1.1,2.4,2.1,4.8,3,7.3a4.875,4.875,0,0,0,.3.7c.1,0,.2-.1.3-.4.7-1.6,1.3-3.2,2-4.9.5-1.2,1.1-2.5,1.5-3.7.8-2.2,1.6-4.5,2.3-6.7.5-1.7,1-3.4,1.5-5.2A34.024,34.024,0,0,0,181,46c.3-2,.7-3.9.8-5.9a21.717,21.717,0,0,0-.3-4.4,12.6,12.6,0,0,0-1-3.3,13.412,13.412,0,0,0-1.8-2.8c-.3-.3-.6-.7-.9-1a.247.247,0,0,1,.1-.4,19.063,19.063,0,0,1,3.4-1,19.529,19.529,0,0,1,3.4-.3,8.721,8.721,0,0,1,6.8,3.4,9.881,9.881,0,0,1,1.9,5,18.5,18.5,0,0,1-.9,6.6c-.7,2.2-1.5,4.4-2.3,6.6a38.9,38.9,0,0,1-1.9,4.2c-.8,1.6-1.5,3.2-2.3,4.8-.7,1.4-1.5,2.7-2.3,4.1-.9,1.6-1.8,3.2-2.8,4.7-1,1.6-1.9,3.2-2.9,4.8-1.1,1.7-2.2,3.4-3.4,5a35.709,35.709,0,0,1-3.4,4.3,6.667,6.667,0,0,1-4.1,2.2,8.164,8.164,0,0,1-4.1-.2,3.445,3.445,0,0,1-2.3-2.9c-.3-2.4-.4-4.8-.5-7.3-.1-2-.2-4-.4-5.9-.2-2.2-.4-4.3-.7-6.5-.2-1.5-.5-2.9-.8-4.4-.2-1.2-.5-2.4-.8-3.7q-.15.15-.3-.3"/>
<path class="a" d="M82.5,82.9c-2.4,0-4.7-.3-7-.5-4.2-.5-8.1-1.5-11.3-3.7A8.9,8.9,0,0,1,60,72.2a9.512,9.512,0,0,1,.8-5.7,6.932,6.932,0,0,1,4.4-3.6,11.813,11.813,0,0,1,5.9-.1c1.2.3,2.3.7,3.4,1,.3.1.4.2.2.5a20.749,20.749,0,0,0-1.8,5.3,7,7,0,0,0,.5,4.1,5.93,5.93,0,0,0,3.8,2.9,23.631,23.631,0,0,0,9.2.6,15.429,15.429,0,0,0,5.2-1.4,6.45,6.45,0,0,0,3.5-4.1,6.245,6.245,0,0,0-1.8-6.4,20.3,20.3,0,0,0-6.2-4.1c-3.5-1.7-7-3.3-10.4-5a29.76,29.76,0,0,1-7.5-5,11.756,11.756,0,0,1-3.8-6.4C64.2,38.8,67,33,73,29.6a21.273,21.273,0,0,1,6.3-2.5,40.172,40.172,0,0,1,12.9-.9,32.209,32.209,0,0,1,6.2,1.1,18.761,18.761,0,0,1,7.7,3.9,8.391,8.391,0,0,1,3,5.3,8,8,0,0,1-.7,4.8,5.445,5.445,0,0,1-3.3,2.6,7.781,7.781,0,0,1-4,.1,5.043,5.043,0,0,1-3.4-3.4c-.4-1.1-.7-2.3-1-3.4a7.424,7.424,0,0,0-5.2-5.1,16.62,16.62,0,0,0-8.3-.2A7.167,7.167,0,0,0,79.3,34,5.181,5.181,0,0,0,78,38.4a6.528,6.528,0,0,0,2.6,4.4,24.55,24.55,0,0,0,5.8,3.6c3.2,1.5,6.5,2.9,9.7,4.5a35.9,35.9,0,0,1,7.9,4.9,13.921,13.921,0,0,1,4.4,6.3,11.86,11.86,0,0,1,.4,6.2,13.314,13.314,0,0,1-2.9,6.4,19.993,19.993,0,0,1-8,5.6,34.668,34.668,0,0,1-8.4,2.2c-2.5.2-4.8.4-7,.4"/></g></svg>