<?xml version="1.0" encoding="UTF-8"?><svg id="a" xmlns="http://www.w3.org/2000/svg" viewBox="0 0 512 415.84"><path d="M459.37,103.63c.33,4.55,.33,9.1,.33,13.65,0,138.72-105.58,298.56-298.56,298.56-59.45,0-114.68-17.22-161.14-47.11,8.45,.97,16.57,1.3,25.34,1.3,49.06,0,94.21-16.57,130.27-44.83-46.13-.98-84.79-31.19-98.11-72.77,6.5,.97,13,1.62,19.82,1.62,9.42,0,18.84-1.3,27.61-3.57-48.08-9.75-84.14-51.98-84.14-102.99v-1.3c13.97,7.8,30.21,12.67,47.43,13.32-28.26-18.84-46.78-51.01-46.78-87.39,0-19.49,5.2-37.36,14.29-52.95,51.65,63.68,129.3,105.26,216.37,109.81-1.62-7.8-2.6-15.92-2.6-24.04C249.5,47.11,296.28,0,354.43,0c30.21,0,57.5,12.67,76.67,33.14,23.71-4.55,46.46-13.32,66.6-25.34-7.8,24.37-24.37,44.83-46.13,57.83,21.12-2.27,41.58-8.12,60.43-16.24-14.29,20.79-32.16,39.31-52.63,54.25h0Z"/></svg>