<svg xmlns="http://www.w3.org/2000/svg" width="189.718" height="81.389" viewBox="0 0 189.718 81.389">
    <g data-name="Gruppe 1">
        <path data-name="Pfad 1" d="M14.55 6.739a5.387 5.387 0 1 0 7.621 0 5.389 5.389 0 0 0-7.621 0" transform="translate(15.97 6.348)" style="fill:#f37021"/>
        <path data-name="Pfad 2" d="M6.956 22.783a3.77 3.77 0 1 0 5.332 0 3.773 3.773 0 0 0-5.332 0" transform="translate(7.2 26.682)" style="fill:#203062"/>
        <path data-name="Pfad 3" d="M6.956 22.783a3.77 3.77 0 1 0 5.332 0 3.773 3.773 0 0 0-5.332 0" transform="translate(7.2 26.682)" style="fill:#203062"/>
        <path data-name="Pfad 4" d="M3.206 3.261a2.089 2.089 0 1 0 2.954 0 2.089 2.089 0 0 0-2.954 0" transform="translate(3.194 3.256)" style="fill:#203062"/>
        <path data-name="Pfad 5" d="M7.184.614a2.089 2.089 0 1 0 2.952 0 2.087 2.087 0 0 0-2.952 0" transform="translate(8.087 -.002)" style="fill:#203062"/>
        <path data-name="Pfad 6" d="M11.077 3.3a2.09 2.09 0 1 0 2.958 0 2.094 2.094 0 0 0-2.958 0" transform="translate(12.884 3.303)" style="fill:#203062"/>
        <path data-name="Pfad 7" d="M22.69 15.153a2.089 2.089 0 1 0 2.956 0 2.09 2.09 0 0 0-2.956 0" transform="translate(27.176 17.896)" style="fill:#203062"/>
        <path data-name="Pfad 8" d="M14.55 14.654a5.386 5.386 0 1 0 7.621 0 5.387 5.387 0 0 0-7.621 0" transform="translate(15.97 16.089)" style="fill:#f37021"/>
        <path data-name="Pfad 9" d="M18.5 10.7a5.387 5.387 0 1 0 7.621 0 5.389 5.389 0 0 0-7.621 0" transform="translate(20.83 11.229)" style="fill:#f37021"/>
        <path data-name="Pfad 10" d="M6.938 14.934a3.773 3.773 0 1 0 5.336 0 3.775 3.775 0 0 0-5.336 0" transform="translate(7.182 17.02)" style="fill:#203062"/>
        <path data-name="Pfad 11" d="M14.817 22.789a3.772 3.772 0 1 0 5.336 0 3.773 3.773 0 0 0-5.336 0" transform="translate(16.88 26.689)" style="fill:#203062"/>
        <path data-name="Pfad 12" d="M18.7 18.838a3.771 3.771 0 1 0 5.336 0 3.773 3.773 0 0 0-5.336 0" transform="translate(21.664 21.824)" style="fill:#203062"/>
        <path data-name="Pfad 13" d="M10.819 18.84a3.771 3.771 0 1 0 5.332 0 3.773 3.773 0 0 0-5.332 0" transform="translate(11.959 21.826)" style="fill:#203062"/>
        <path data-name="Pfad 14" d="M10.819 10.96a3.771 3.771 0 1 0 5.332 0 3.773 3.773 0 0 0-5.332 0" transform="translate(11.959 12.128)" style="fill:#203062"/>
        <path data-name="Pfad 15" d="M2.958 18.851a3.772 3.772 0 1 0 5.332 0 3.769 3.769 0 0 0-5.332 0" transform="translate(2.28 21.84)" style="fill:#203062"/>
        <path data-name="Pfad 16" d="M6.957 6.967a3.773 3.773 0 1 0 5.332 0 3.772 3.772 0 0 0-5.332 0" transform="translate(7.205 7.213)" style="fill:#203062"/>
        <path data-name="Pfad 17" d="M.422 15.265a1.436 1.436 0 1 0 2.03 0 1.437 1.437 0 0 0-2.03 0" transform="translate(0 18.269)" style="fill:#203062"/>
        <path data-name="Pfad 18" d="M.421 7.35a1.436 1.436 0 1 0 2.028 0 1.439 1.439 0 0 0-2.028 0" transform="translate(0 8.526)" style="fill:#203062"/>
        <path data-name="Pfad 19" d="M3.2 11.234a2.089 2.089 0 1 0 2.958 0 2.092 2.092 0 0 0-2.958 0" transform="translate(3.188 13.071)" style="fill:#203062"/>
        <path data-name="Pfad 20" d="M22.693 7.238a2.089 2.089 0 1 0 2.956 0 2.087 2.087 0 0 0-2.956 0" transform="translate(27.18 8.152)" style="fill:#203062"/>
        <path data-name="Pfad 21" d="M19 3.343a2.09 2.09 0 1 0 2.956 0 2.09 2.09 0 0 0-2.956 0" transform="translate(22.638 3.359)" style="fill:#203062"/>
        <path data-name="Pfad 22" d="M15.078.616a2.089 2.089 0 1 0 2.954 0 2.09 2.09 0 0 0-2.954 0" transform="translate(17.806)" style="fill:#203062"/>
        <path data-name="Pfad 23" d="M14.817 22.789a3.772 3.772 0 1 0 5.336 0 3.773 3.773 0 0 0-5.336 0" transform="translate(16.88 26.689)" style="fill:#203062"/>
        <path data-name="Pfad 24" d="M18.7 18.838a3.771 3.771 0 1 0 5.336 0 3.773 3.773 0 0 0-5.336 0" transform="translate(21.664 21.824)" style="fill:#203062"/>
        <path data-name="Pfad 25" d="M10.819 18.84a3.771 3.771 0 1 0 5.332 0 3.773 3.773 0 0 0-5.332 0" transform="translate(11.959 21.826)" style="fill:#203062"/>
        <path data-name="Pfad 26" d="M2.958 18.851a3.772 3.772 0 1 0 5.332 0 3.769 3.769 0 0 0-5.332 0" transform="translate(2.28 21.84)" style="fill:#203062"/>
        <path data-name="Pfad 27" d="M94.943 35.885c-.556 1.209-1.064 2.349-1.6 3.476a86.899 86.899 0 0 1-1.548 3.119 259.225 259.225 0 0 1-3.07 5.687c-.736 1.318-1.551 2.6-2.329 3.893-.629 1.044-1.238 2.1-1.894 3.128-1.026 1.611-2.041 3.235-3.146 4.794a41.289 41.289 0 0 1-3.4 4.417 7.487 7.487 0 0 1-6.041 2.374c-2.117-.1-3.382-.895-3.9-3.188-.33-1.47-.52-2.974-.734-4.466-.29-2.041-.535-4.085-.819-6.126-.19-1.37-.379-2.742-.625-4.1q-.432-2.393-.964-4.765c-.39-1.751-.8-3.5-1.265-5.227-.361-1.343-.812-2.664-1.26-3.984-.576-1.691-1.147-3.382-1.791-5.049-.573-1.477-1.243-2.916-1.876-4.368a27.516 27.516 0 0 0-1.394-3.088 16.764 16.764 0 0 0-2.222-3.025 11.114 11.114 0 0 0-4.886-2.546c-1.165-.379-2.166-1-1.9-2.289a2.339 2.339 0 0 1 .964-1.323c2.021-1.3 4.326-1.4 6.637-1.345a13.945 13.945 0 0 1 7.92 2.14 18.424 18.424 0 0 1 3.175 3.054 14.305 14.305 0 0 1 1.812 2.751c.672 1.269 1.214 2.606 1.816 3.913.337.73.712 1.446 1.015 2.189.656 1.606 1.283 3.226 1.914 4.841.379.97.783 1.934 1.111 2.923q.883 2.67 1.68 5.37.639 2.168 1.169 4.37c.268 1.115.462 2.251.667 3.382q.539 2.962 1.053 5.928c.071.417.125.837.17 1.26.007.076.033.2.116.212s.181-.107.214-.185c.794-1.939 1.611-3.868 2.363-5.825A141.064 141.064 0 0 0 84 42.851c.518-1.508 1.049-3.021 1.439-4.567.607-2.4 1.131-4.817 1.631-7.237a33.358 33.358 0 0 0 .825-8.62 13.366 13.366 0 0 0-1.12-4.834 13.542 13.542 0 0 0-2.8-4.022c-.259-.259-.129-.375.194-.511a14.869 14.869 0 0 1 6.611-1.16 8.538 8.538 0 0 1 6.668 3.355 8.9 8.9 0 0 1 1.778 6.793 54.662 54.662 0 0 1-1.282 5.852 21.215 21.215 0 0 1-.805 2.465c-.1.277.192.6.368.9 1.214 2.012 2.483 3.991 3.657 6.024.933 1.613 1.783 3.275 2.621 4.939.944 1.872 1.883 3.748 2.735 5.664 1.044 2.354 2.073 4.716 2.989 7.123.027.069.245.678.335.678.123 0 .154-.051.306-.41.663-1.584 1.307-3.168 1.974-4.759.509-1.214 1.051-2.414 1.492-3.652.785-2.191 1.539-4.4 2.247-6.615a81.98 81.98 0 0 0 1.437-5.066 57.74 57.74 0 0 0 .9-4.469c.317-1.932.665-3.871.788-5.818a19.708 19.708 0 0 0-.3-4.31 12.677 12.677 0 0 0-.991-3.266 13.677 13.677 0 0 0-1.78-2.8c-.259-.326-.58-.645-.877-.984a.246.246 0 0 1 .112-.426 19.611 19.611 0 0 1 3.344-.962 15.125 15.125 0 0 1 3.358-.257 8.588 8.588 0 0 1 8.455 8.223 17.2 17.2 0 0 1-.861 6.452c-.709 2.186-1.441 4.368-2.258 6.514-.535 1.405-1.227 2.753-1.867 4.118-.743 1.577-1.479 3.159-2.276 4.712-.7 1.363-1.466 2.695-2.226 4.027q-1.339 2.336-2.722 4.643c-.944 1.568-1.9 3.132-2.891 4.672-1.069 1.662-2.142 3.329-3.293 4.935a40.059 40.059 0 0 1-3.306 4.2 7.075 7.075 0 0 1-4.054 2.2 8.122 8.122 0 0 1-3.976-.158 3.26 3.26 0 0 1-2.253-2.858c-.279-2.367-.377-4.754-.538-7.132-.132-1.941-.2-3.886-.377-5.823q-.288-3.182-.73-6.354c-.2-1.437-.509-2.862-.79-4.288-.239-1.2-.506-2.4-.767-3.6a3.813 3.813 0 0 0-.183-.493" transform="translate(59.376 14.607)" style="fill:#203062"/>
        <path data-name="Pfad 28" d="M48.538 67.329a53.751 53.751 0 0 1-6.856-.515c-4.085-.5-7.929-1.488-11.1-3.663a9.115 9.115 0 0 1-4.163-6.427 9.783 9.783 0 0 1 .77-5.613 6.489 6.489 0 0 1 4.31-3.554 11.428 11.428 0 0 1 5.789-.062c1.14.261 2.224.672 3.34 1.011.3.089.35.223.205.526a18.74 18.74 0 0 0-1.8 5.218 6.435 6.435 0 0 0 .506 4.056 5.967 5.967 0 0 0 3.777 2.833 23.3 23.3 0 0 0 9.049.544A13.912 13.912 0 0 0 57.5 60.3a6.407 6.407 0 0 0 3.42-4.056 6.115 6.115 0 0 0-1.789-6.327 21.031 21.031 0 0 0-6.095-4.038c-3.42-1.647-6.86-3.222-10.227-4.879a29.988 29.988 0 0 1-7.387-4.89 11.747 11.747 0 0 1-3.73-6.273C30.564 24 33.3 18.242 39.142 14.938a24.914 24.914 0 0 1 6.231-2.481 37.752 37.752 0 0 1 12.616-.863 32.532 32.532 0 0 1 6.064 1.051 18.365 18.365 0 0 1 7.59 3.853 8.5 8.5 0 0 1 2.916 5.169 7.484 7.484 0 0 1-.689 4.745 5.092 5.092 0 0 1-3.239 2.521 7.4 7.4 0 0 1-3.942.074 4.718 4.718 0 0 1-3.293-3.317c-.384-1.091-.645-2.231-1-3.333a7.348 7.348 0 0 0-5.089-5 15.659 15.659 0 0 0-8.1-.149 6.853 6.853 0 0 0-3.779 2.081 5.381 5.381 0 0 0-1.318 4.321 6.61 6.61 0 0 0 2.53 4.321 24.187 24.187 0 0 0 5.707 3.494c3.137 1.472 6.331 2.885 9.49 4.384a32.724 32.724 0 0 1 7.724 4.85A13.815 13.815 0 0 1 73.84 46.8a12.723 12.723 0 0 1 .4 6.133 13.263 13.263 0 0 1-2.8 6.271 18.986 18.986 0 0 1-7.853 5.457 33.035 33.035 0 0 1-8.252 2.113 58.562 58.562 0 0 1-6.8.558" transform="translate(32.387 14.058)" style="fill:#203062"/>
    </g>
</svg>
