<svg xmlns="http://www.w3.org/2000/svg" width="127.184" height="15.176" viewBox="0 0 127.184 15.176">
    <defs>
        <clipPath id="xv1uu66zya">
            <path data-name="Rechteck 775" style="fill:none" d="M0 0h127.184v15.176H0z"/>
        </clipPath>
    </defs>
    <g data-name="Gruppe 271">
        <g data-name="Gruppe 270" style="clip-path:url(#xv1uu66zya)">
            <path data-name="Pfad 217" d="m25.317 8.318 1.086.275a3.648 3.648 0 0 1-1.229 2.04 3.383 3.383 0 0 1-2.169.7 3.9 3.9 0 0 1-2.158-.54 3.372 3.372 0 0 1-1.266-1.563 5.585 5.585 0 0 1-.434-2.2 4.832 4.832 0 0 1 .491-2.238 3.36 3.36 0 0 1 1.394-1.45 4.08 4.08 0 0 1 1.99-.5 3.364 3.364 0 0 1 2.071.628 3.26 3.26 0 0 1 1.17 1.763l-1.07.252a2.53 2.53 0 0 0-.828-1.3A2.2 2.2 0 0 0 23 3.776a2.658 2.658 0 0 0-1.582.453 2.4 2.4 0 0 0-.893 1.219 4.919 4.919 0 0 0-.258 1.576 5 5 0 0 0 .306 1.827 2.277 2.277 0 0 0 .949 1.168 2.673 2.673 0 0 0 1.394.386 2.332 2.332 0 0 0 1.545-.527 2.69 2.69 0 0 0 .857-1.562" transform="translate(2.397 .357)" style="fill:#fff"/>
            <path data-name="Pfad 218" d="M30.783 10.209a3.757 3.757 0 0 1-1.078.673 3.118 3.118 0 0 1-1.112.2 2.156 2.156 0 0 1-1.505-.479 1.578 1.578 0 0 1-.527-1.223A1.654 1.654 0 0 1 27.28 8a2.453 2.453 0 0 1 .726-.33 7 7 0 0 1 .9-.152 9.24 9.24 0 0 0 1.8-.347c0-.138.006-.226.006-.263a1.116 1.116 0 0 0-.286-.869A1.689 1.689 0 0 0 29.27 5.7a1.787 1.787 0 0 0-1.05.249 1.521 1.521 0 0 0-.5.882l-.986-.134a2.46 2.46 0 0 1 .442-1.023 1.942 1.942 0 0 1 .89-.6 3.984 3.984 0 0 1 1.35-.21 3.543 3.543 0 0 1 1.237.18 1.622 1.622 0 0 1 .7.45 1.58 1.58 0 0 1 .314.686 5.642 5.642 0 0 1 .051.929v1.342a14.321 14.321 0 0 0 .064 1.778 2.249 2.249 0 0 0 .254.713h-1.052a2.115 2.115 0 0 1-.2-.734m-.084-2.25a7.377 7.377 0 0 1-1.646.381 3.757 3.757 0 0 0-.879.2.88.88 0 0 0-.233 1.477 1.316 1.316 0 0 0 .893.269 2.08 2.08 0 0 0 1.036-.254 1.574 1.574 0 0 0 .666-.7 2.437 2.437 0 0 0 .163-1.002z" transform="translate(3.325 .609)" style="fill:#fff"/>
            <path data-name="Pfad 219" d="m35 10.257.145.89a3.749 3.749 0 0 1-.762.09 1.733 1.733 0 0 1-.851-.173.972.972 0 0 1-.425-.457 3.609 3.609 0 0 1-.123-1.189V6h-.739v-.788h.739V3.74l1-.605v2.077H35V6h-1.015v3.473a1.778 1.778 0 0 0 .053.555.419.419 0 0 0 .174.2.67.67 0 0 0 .344.073 3.339 3.339 0 0 0 .444-.044" transform="translate(4.036 .393)" style="fill:#fff"/>
            <path data-name="Pfad 220" d="M39.69 10.209a3.757 3.757 0 0 1-1.078.673 3.118 3.118 0 0 1-1.112.2 2.156 2.156 0 0 1-1.505-.479 1.578 1.578 0 0 1-.527-1.223A1.654 1.654 0 0 1 36.187 8a2.453 2.453 0 0 1 .726-.33 7 7 0 0 1 .9-.152 9.239 9.239 0 0 0 1.8-.347c0-.138.006-.226.006-.263a1.116 1.116 0 0 0-.286-.869 1.689 1.689 0 0 0-1.156-.339 1.787 1.787 0 0 0-1.05.249 1.521 1.521 0 0 0-.5.882l-.986-.134a2.46 2.46 0 0 1 .442-1.023 1.942 1.942 0 0 1 .89-.6 3.984 3.984 0 0 1 1.35-.21 3.543 3.543 0 0 1 1.237.18 1.622 1.622 0 0 1 .7.45 1.58 1.58 0 0 1 .314.686 5.642 5.642 0 0 1 .051.929v1.342a14.321 14.321 0 0 0 .064 1.778 2.249 2.249 0 0 0 .254.713h-1.052a2.115 2.115 0 0 1-.2-.734m-.084-2.25a7.377 7.377 0 0 1-1.646.381 3.757 3.757 0 0 0-.879.2.88.88 0 0 0-.233 1.477 1.316 1.316 0 0 0 .893.269 2.08 2.08 0 0 0 1.036-.254 1.574 1.574 0 0 0 .666-.7 2.437 2.437 0 0 0 .162-1.007z" transform="translate(4.44 .609)" style="fill:#fff"/>
            <path data-name="Rechteck 774" transform="translate(46.833 3.344)" style="fill:#fff" d="M0 0h1.008v8.208H0z"/>
            <path data-name="Pfad 221" d="m44.13 13.218-.113-.946a2.251 2.251 0 0 0 .577.089 1.115 1.115 0 0 0 .538-.111.917.917 0 0 0 .33-.314 4.967 4.967 0 0 0 .308-.749c.018-.056.048-.138.089-.248L43.6 4.982h1.09l1.237 3.443q.241.655.431 1.377a13.586 13.586 0 0 1 .415-1.355l1.27-3.466h1.008l-2.263 6.047a11.809 11.809 0 0 1-.565 1.349 1.985 1.985 0 0 1-.617.731 1.449 1.449 0 0 1-.828.232 2.016 2.016 0 0 1-.649-.123" transform="translate(5.458 .624)" style="fill:#fff"/>
            <path data-name="Pfad 222" d="m49.042 9.168 1-.158a1.4 1.4 0 0 0 .467.919 1.63 1.63 0 0 0 1.072.318 1.581 1.581 0 0 0 1.031-.282.846.846 0 0 0 .335-.664.615.615 0 0 0-.3-.538 4.455 4.455 0 0 0-1.031-.341 9.441 9.441 0 0 1-1.537-.484 1.47 1.47 0 0 1-.871-1.364 1.532 1.532 0 0 1 .182-.737 1.626 1.626 0 0 1 .5-.561 2.1 2.1 0 0 1 .641-.295 3.068 3.068 0 0 1 .871-.12 3.451 3.451 0 0 1 1.229.2 1.664 1.664 0 0 1 .781.547 2.121 2.121 0 0 1 .348.92l-.986.135a1.074 1.074 0 0 0-.389-.717 1.42 1.42 0 0 0-.909-.259 1.647 1.647 0 0 0-.991.231.667.667 0 0 0-.3.537.555.555 0 0 0 .123.353.893.893 0 0 0 .387.269q.15.056.89.257a12.436 12.436 0 0 1 1.492.468 1.52 1.52 0 0 1 .664.529 1.478 1.478 0 0 1 .241.863 1.694 1.694 0 0 1-.294.949 1.9 1.9 0 0 1-.848.689 3.077 3.077 0 0 1-1.255.243 2.8 2.8 0 0 1-1.767-.48 2.24 2.24 0 0 1-.775-1.428" transform="translate(6.139 .609)" style="fill:#fff"/>
            <path data-name="Pfad 223" d="m56.961 10.257.145.89a3.749 3.749 0 0 1-.762.09 1.733 1.733 0 0 1-.851-.173.972.972 0 0 1-.425-.457 3.609 3.609 0 0 1-.123-1.189V6h-.739v-.788h.739V3.74l1-.605v2.077h1.014V6h-1.011v3.473a1.779 1.779 0 0 0 .053.555.419.419 0 0 0 .174.2.67.67 0 0 0 .344.073 3.339 3.339 0 0 0 .442-.039" transform="translate(6.785 .393)" style="fill:#fff"/>
            <path data-name="Pfad 224" d="M61.082 11.195V6.032h-.89v-.784h.89v-.632a2.738 2.738 0 0 1 .107-.89 1.282 1.282 0 0 1 .511-.636 1.847 1.847 0 0 1 1.027-.243 4.994 4.994 0 0 1 .941.1l-.152.88a3.283 3.283 0 0 0-.593-.056.883.883 0 0 0-.649.2 1.06 1.06 0 0 0-.19.734v.548h1.159v.784h-1.158v5.162z" transform="translate(7.534 .357)" style="fill:#fff"/>
            <path data-name="Pfad 225" d="M63.247 7.97a3.065 3.065 0 0 1 .918-2.447 2.771 2.771 0 0 1 1.87-.66 2.668 2.668 0 0 1 2.005.8 3.058 3.058 0 0 1 .779 2.22 3.951 3.951 0 0 1-.344 1.806 2.431 2.431 0 0 1-1 1.022 2.914 2.914 0 0 1-1.437.363 2.673 2.673 0 0 1-2.017-.8 3.194 3.194 0 0 1-.771-2.307m1.036 0a2.532 2.532 0 0 0 .5 1.71 1.659 1.659 0 0 0 2.5 0 2.6 2.6 0 0 0 .5-1.742 2.455 2.455 0 0 0-.5-1.671 1.662 1.662 0 0 0-2.5 0 2.523 2.523 0 0 0-.5 1.708" transform="translate(7.917 .609)" style="fill:#fff"/>
            <path data-name="Pfad 226" d="M69.432 10.942V5h.907v.9a2.481 2.481 0 0 1 .641-.834 1.123 1.123 0 0 1 .647-.2 1.962 1.962 0 0 1 1.035.325l-.347.935a1.436 1.436 0 0 0-.739-.218.959.959 0 0 0-.594.2 1.072 1.072 0 0 0-.375.552 3.9 3.9 0 0 0-.168 1.175v3.113z" transform="translate(8.691 .609)" style="fill:#fff"/>
            <path data-name="Pfad 227" d="m75.716 9.168 1-.158a1.4 1.4 0 0 0 .467.919 1.63 1.63 0 0 0 1.072.318 1.581 1.581 0 0 0 1.031-.282.846.846 0 0 0 .335-.664.615.615 0 0 0-.3-.538 4.455 4.455 0 0 0-1.031-.341 9.441 9.441 0 0 1-1.537-.484 1.47 1.47 0 0 1-.871-1.364 1.532 1.532 0 0 1 .182-.737 1.626 1.626 0 0 1 .5-.561 2.1 2.1 0 0 1 .641-.295 3.068 3.068 0 0 1 .871-.12 3.451 3.451 0 0 1 1.229.2 1.664 1.664 0 0 1 .781.547 2.121 2.121 0 0 1 .348.92l-.986.135a1.074 1.074 0 0 0-.389-.717 1.42 1.42 0 0 0-.909-.259 1.647 1.647 0 0 0-.991.231.667.667 0 0 0-.3.537.555.555 0 0 0 .123.353.893.893 0 0 0 .387.269q.15.056.89.257a12.437 12.437 0 0 1 1.491.466 1.52 1.52 0 0 1 .664.529 1.478 1.478 0 0 1 .241.863 1.694 1.694 0 0 1-.294.949 1.9 1.9 0 0 1-.848.689 3.077 3.077 0 0 1-1.255.243 2.8 2.8 0 0 1-1.767-.48 2.24 2.24 0 0 1-.775-1.428" transform="translate(9.477 .609)" style="fill:#fff"/>
            <path data-name="Pfad 228" d="M85.273 10.928v-.873a2.175 2.175 0 0 1-1.887 1.007 2.39 2.39 0 0 1-.982-.2 1.607 1.607 0 0 1-.677-.506 1.9 1.9 0 0 1-.312-.747 5.2 5.2 0 0 1-.061-.942V4.981h1.007v3.3a5.931 5.931 0 0 0 .062 1.064 1.055 1.055 0 0 0 .4.624 1.253 1.253 0 0 0 .762.226 1.658 1.658 0 0 0 .852-.232A1.3 1.3 0 0 0 85 9.33a3.206 3.206 0 0 0 .164-1.162V4.981h1.008v5.947z" transform="translate(10.183 .624)" style="fill:#fff"/>
            <path data-name="Pfad 229" d="m91.16 8.765.991.128a2.577 2.577 0 0 1-.831 1.6 2.42 2.42 0 0 1-1.644.579 2.553 2.553 0 0 1-1.962-.8 3.24 3.24 0 0 1-.741-2.287 4.135 4.135 0 0 1 .318-1.684 2.229 2.229 0 0 1 .972-1.084 2.88 2.88 0 0 1 1.419-.361 2.471 2.471 0 0 1 1.585.489 2.252 2.252 0 0 1 .789 1.392l-.98.151a1.624 1.624 0 0 0-.5-.9 1.284 1.284 0 0 0-.86-.3 1.564 1.564 0 0 0-1.238.547 2.589 2.589 0 0 0-.476 1.726 2.672 2.672 0 0 0 .46 1.742 1.49 1.49 0 0 0 1.2.543 1.41 1.41 0 0 0 .991-.365 1.8 1.8 0 0 0 .5-1.12" transform="translate(10.886 .609)" style="fill:#fff"/>
            <path data-name="Pfad 230" d="m96.459 8.765.991.128a2.577 2.577 0 0 1-.831 1.6 2.42 2.42 0 0 1-1.644.579 2.553 2.553 0 0 1-1.962-.8 3.24 3.24 0 0 1-.741-2.287 4.135 4.135 0 0 1 .318-1.684 2.229 2.229 0 0 1 .972-1.084 2.88 2.88 0 0 1 1.419-.361 2.471 2.471 0 0 1 1.585.489 2.252 2.252 0 0 1 .789 1.392l-.98.151a1.623 1.623 0 0 0-.5-.9 1.284 1.284 0 0 0-.86-.3 1.564 1.564 0 0 0-1.238.547 2.589 2.589 0 0 0-.476 1.726 2.672 2.672 0 0 0 .46 1.742 1.49 1.49 0 0 0 1.2.543 1.41 1.41 0 0 0 .991-.365 1.8 1.8 0 0 0 .5-1.12" transform="translate(11.55 .609)" style="fill:#fff"/>
            <path data-name="Pfad 231" d="m101.952 9.028 1.041.128a2.54 2.54 0 0 1-.913 1.417 3.091 3.091 0 0 1-3.77-.3 3.139 3.139 0 0 1-.764-2.254 3.285 3.285 0 0 1 .773-2.329 2.612 2.612 0 0 1 2-.828 2.542 2.542 0 0 1 1.949.811 3.225 3.225 0 0 1 .755 2.284c0 .06 0 .15-.006.269h-4.43a2.287 2.287 0 0 0 .555 1.5 1.651 1.651 0 0 0 1.243.521 1.549 1.549 0 0 0 .946-.291 1.937 1.937 0 0 0 .621-.929M98.643 7.4h3.32a2.02 2.02 0 0 0-.38-1.125 1.548 1.548 0 0 0-1.249-.583 1.6 1.6 0 0 0-1.168.465 1.844 1.844 0 0 0-.523 1.243" transform="translate(12.21 .609)" style="fill:#fff"/>
            <path data-name="Pfad 232" d="m103.347 9.168 1-.158a1.4 1.4 0 0 0 .467.919 1.63 1.63 0 0 0 1.072.318 1.581 1.581 0 0 0 1.031-.282.846.846 0 0 0 .335-.664.615.615 0 0 0-.3-.538 4.455 4.455 0 0 0-1.031-.341 9.441 9.441 0 0 1-1.537-.484 1.47 1.47 0 0 1-.871-1.364 1.532 1.532 0 0 1 .182-.737 1.626 1.626 0 0 1 .5-.561 2.1 2.1 0 0 1 .641-.295 3.068 3.068 0 0 1 .871-.12 3.451 3.451 0 0 1 1.229.2 1.664 1.664 0 0 1 .781.547 2.121 2.121 0 0 1 .348.92l-.986.135a1.074 1.074 0 0 0-.389-.717 1.42 1.42 0 0 0-.909-.259 1.647 1.647 0 0 0-.991.231.667.667 0 0 0-.3.537.555.555 0 0 0 .123.353.893.893 0 0 0 .387.272q.15.056.89.257a12.436 12.436 0 0 1 1.492.468 1.52 1.52 0 0 1 .664.529 1.478 1.478 0 0 1 .241.863 1.694 1.694 0 0 1-.294.949 1.9 1.9 0 0 1-.848.689 3.077 3.077 0 0 1-1.255.243 2.8 2.8 0 0 1-1.767-.48 2.24 2.24 0 0 1-.775-1.428" transform="translate(12.936 .609)" style="fill:#fff"/>
            <path data-name="Pfad 233" d="m108.647 9.168 1-.158a1.4 1.4 0 0 0 .467.919 1.63 1.63 0 0 0 1.072.318 1.581 1.581 0 0 0 1.031-.282.846.846 0 0 0 .335-.664.615.615 0 0 0-.3-.538 4.455 4.455 0 0 0-1.031-.341 9.441 9.441 0 0 1-1.537-.484 1.47 1.47 0 0 1-.871-1.364 1.532 1.532 0 0 1 .187-.735 1.626 1.626 0 0 1 .5-.561 2.1 2.1 0 0 1 .641-.295 3.068 3.068 0 0 1 .871-.12 3.451 3.451 0 0 1 1.229.2 1.664 1.664 0 0 1 .781.547 2.121 2.121 0 0 1 .348.92l-.986.135a1.074 1.074 0 0 0-.389-.717 1.42 1.42 0 0 0-.909-.259 1.647 1.647 0 0 0-.991.231.667.667 0 0 0-.3.537.555.555 0 0 0 .123.353.893.893 0 0 0 .387.269q.15.056.89.257a12.436 12.436 0 0 1 1.492.468 1.52 1.52 0 0 1 .664.529 1.478 1.478 0 0 1 .241.863 1.694 1.694 0 0 1-.294.949 1.9 1.9 0 0 1-.848.689 3.078 3.078 0 0 1-1.255.243 2.8 2.8 0 0 1-1.767-.48 2.24 2.24 0 0 1-.775-1.428" transform="translate(13.599 .609)" style="fill:#fff"/>
            <path data-name="Pfad 234" d="M.84 9.228a2.871 2.871 0 1 0 4.06 0 2.87 2.87 0 0 0-4.06 0" transform="translate(0 1.05)" style="fill:#f37021"/>
            <path data-name="Pfad 235" d="M.84.842a2.871 2.871 0 1 0 4.06 0 2.872 2.872 0 0 0-4.06 0" style="fill:#f37021"/>
            <path data-name="Pfad 236" d="M5.056 5.058a2.871 2.871 0 1 0 4.06 0 2.87 2.87 0 0 0-4.06 0" transform="translate(.528 .528)" style="fill:#f37021"/>
        </g>
    </g>
</svg>
