<?xml version="1.0" encoding="UTF-8"?>
<svg id="Layer_1" data-name="Layer 1" xmlns="http://www.w3.org/2000/svg" viewBox="0 0 20.12 20.12">
  <path class="cls-1" d="M8.05,16.09C3.6,16.09,0,12.49,0,8.05S3.6,0,8.05,0s8.04,3.6,8.05,8.05c0,4.44-3.6,8.04-8.05,8.05h0Zm0-14.49C4.5,1.61,1.62,4.49,1.61,8.05c0,3.55,2.88,6.43,6.44,6.44,3.55,0,6.43-2.88,6.44-6.44,0-3.55-2.88-6.44-6.44-6.44h0Z"/>
  <path class="cls-1" d="M19.31,20.12c-.21,0-.42-.08-.57-.24l-6.15-6.15c-.31-.31-.32-.82,0-1.13h0c.31-.31,.82-.31,1.14,0l6.15,6.15c.31,.31,.32,.82,0,1.13h0c-.15,.15-.36,.24-.57,.24Z"/>
</svg>