<?xml version="1.0" encoding="UTF-8"?><svg id="a" xmlns="http://www.w3.org/2000/svg" viewBox="0 0 383.97 448.1"><path d="M162.67,178c-1.8,3.3-25.2,44.4-70.1,123.5-4.9,8.3-10.8,12.5-17.7,12.5H9.77c-7.7,0-12.1-7.5-8.5-14.4l69-121.3c.2,0,.2-.1,0-.3L26.37,102.4c-4.3-7.8,.3-14.1,8.5-14.1H99.97c7.3,0,13.3,4.1,18,12.2l44.7,77.5ZM382.57,14.1l-144,253v.3l91.6,166.6c3.9,7.1,.2,14.1-8.5,14.1h-65.2c-7.6,0-13.6-4-18-12.2l-92.4-168.5c3.3-5.8,51.5-90.8,144.8-255.2,4.6-8.1,10.4-12.2,17.5-12.2h65.7c8,0,12.3,6.7,8.5,14.1h0Z"/></svg>