<?xml version="1.0" encoding="UTF-8"?>
<svg id="Layer_1" data-name="Layer 1" xmlns="http://www.w3.org/2000/svg" viewBox="0 0 189.72 81.39">
  <defs>
    <style>
      .cls-1 {
        fill: #f37021;
      }

      .cls-2 {
        fill: #203062;
      }
    </style>
  </defs>
  <path class="cls-1" d="M30.52,13.09c-2.1,2.1-2.1,5.52,0,7.62,2.1,2.1,5.52,2.1,7.62,0,2.1-2.1,2.1-5.51,0-7.62-2.1-2.1-5.52-2.1-7.62,0"/>
  <path class="cls-2" d="M14.16,49.47c-1.47,1.47-1.47,3.86,0,5.33,1.47,1.47,3.86,1.47,5.33,0,1.47-1.47,1.47-3.86,0-5.33-1.47-1.47-3.86-1.47-5.33,0"/>
  <path class="cls-2" d="M14.16,49.47c-1.47,1.47-1.47,3.86,0,5.33,1.47,1.47,3.86,1.47,5.33,0,1.47-1.47,1.47-3.86,0-5.33-1.47-1.47-3.86-1.47-5.33,0"/>
  <path class="cls-2" d="M6.4,6.52c-.82,.82-.82,2.14,0,2.95s2.14,.82,2.95,0c.82-.82,.82-2.14,0-2.95,0,0,0,0,0,0-.82-.82-2.14-.82-2.95,0"/>
  <path class="cls-2" d="M15.27,.61c-.82,.82-.82,2.14,0,2.95s2.14,.82,2.95,0,.82-2.14,0-2.95c0,0,0,0,0,0-.81-.82-2.14-.82-2.95,0,0,0,0,0,0,0"/>
  <path class="cls-2" d="M23.96,6.6c-.82,.82-.81,2.14,0,2.96,.82,.82,2.14,.81,2.96,0,.81-.82,.81-2.14,0-2.95-.82-.82-2.14-.82-2.96,0"/>
  <path class="cls-2" d="M49.87,33.05c-.82,.82-.81,2.14,0,2.95,.82,.82,2.14,.81,2.95,0,.81-.82,.81-2.14,0-2.95-.82-.82-2.14-.82-2.96,0,0,0,0,0,0,0"/>
  <path class="cls-1" d="M30.52,30.74c-2.1,2.1-2.1,5.51,0,7.62,2.1,2.1,5.51,2.1,7.62,0,2.1-2.1,2.1-5.51,0-7.61-2.1-2.1-5.51-2.11-7.62,0h0"/>
  <path class="cls-1" d="M39.33,21.93c-2.1,2.1-2.1,5.52,0,7.62,2.1,2.1,5.52,2.1,7.62,0,2.1-2.1,2.1-5.51,0-7.62-2.1-2.1-5.52-2.1-7.62,0"/>
  <path class="cls-2" d="M14.12,31.95c-1.47,1.47-1.47,3.86,0,5.34,1.47,1.47,3.86,1.47,5.34,0,1.47-1.47,1.47-3.86,0-5.34-1.47-1.47-3.86-1.47-5.34,0"/>
  <path class="cls-2" d="M31.7,49.48c-1.47,1.47-1.47,3.86,0,5.33s3.86,1.47,5.33,0c1.47-1.47,1.47-3.86,0-5.33-1.47-1.47-3.86-1.47-5.34,0,0,0,0,0,0,0"/>
  <path class="cls-2" d="M40.36,40.66c-1.47,1.47-1.47,3.86,0,5.33s3.86,1.47,5.33,0c1.47-1.47,1.47-3.86,0-5.33-1.47-1.47-3.86-1.47-5.34,0h0"/>
  <path class="cls-2" d="M22.78,40.67c-1.47,1.47-1.47,3.86,0,5.33,1.47,1.47,3.86,1.47,5.33,0s1.47-3.86,0-5.33c0,0,0,0,0,0-1.47-1.47-3.86-1.47-5.33,0"/>
  <path class="cls-2" d="M22.78,23.09c-1.47,1.47-1.47,3.86,0,5.33,1.47,1.47,3.86,1.47,5.33,0s1.47-3.86,0-5.33c0,0,0,0,0,0-1.47-1.47-3.86-1.47-5.33,0"/>
  <path class="cls-2" d="M5.24,40.69c-1.47,1.47-1.47,3.86,0,5.33,1.47,1.47,3.86,1.47,5.33,0,1.47-1.47,1.47-3.86,0-5.33,0,0,0,0,0,0-1.47-1.47-3.86-1.47-5.33,0,0,0,0,0,0,0"/>
  <path class="cls-2" d="M14.16,14.18c-1.47,1.47-1.48,3.86,0,5.34,1.47,1.47,3.86,1.48,5.34,0s1.48-3.86,0-5.34c0,0,0,0,0,0-1.47-1.47-3.86-1.47-5.33,0"/>
  <path class="cls-2" d="M.42,33.53c-.56,.56-.56,1.47,0,2.03,.56,.56,1.47,.56,2.03,0,.56-.56,.56-1.47,0-2.03,0,0,0,0,0,0-.56-.56-1.47-.56-2.03,0"/>
  <path class="cls-2" d="M.42,15.88c-.56,.56-.56,1.47,0,2.03,.56,.56,1.47,.56,2.03,0,.56-.56,.56-1.47,0-2.03,0,0,0,0,0,0-.56-.56-1.47-.56-2.03,0"/>
  <path class="cls-2" d="M6.39,24.31c-.81,.82-.81,2.14,0,2.95,.82,.81,2.14,.81,2.95,0,.81-.82,.81-2.14,0-2.95-.82-.82-2.14-.82-2.96,0"/>
  <path class="cls-2" d="M49.87,15.39c-.82,.82-.81,2.14,0,2.95,.82,.82,2.14,.81,2.95,0,.81-.82,.81-2.14,0-2.95-.81-.82-2.14-.82-2.95,0,0,0,0,0,0,0"/>
  <path class="cls-2" d="M41.64,6.7c-.82,.82-.82,2.14,0,2.96s2.14,.82,2.96,0c.82-.82,.82-2.14,0-2.96-.82-.82-2.14-.82-2.96,0,0,0,0,0,0,0"/>
  <path class="cls-2" d="M32.88,.62c-.82,.82-.82,2.14,0,2.95,.82,.82,2.14,.82,2.95,0s.82-2.14,0-2.95h0c-.82-.82-2.14-.82-2.95,0"/>
  <path class="cls-2" d="M31.7,49.48c-1.47,1.47-1.47,3.86,0,5.33s3.86,1.47,5.33,0c1.47-1.47,1.47-3.86,0-5.33-1.47-1.47-3.86-1.47-5.34,0,0,0,0,0,0,0"/>
  <path class="cls-2" d="M40.36,40.66c-1.47,1.47-1.47,3.86,0,5.33s3.86,1.47,5.33,0c1.47-1.47,1.47-3.86,0-5.33-1.47-1.47-3.86-1.47-5.34,0h0"/>
  <path class="cls-2" d="M22.78,40.67c-1.47,1.47-1.47,3.86,0,5.33,1.47,1.47,3.86,1.47,5.33,0s1.47-3.86,0-5.33c0,0,0,0,0,0-1.47-1.47-3.86-1.47-5.33,0"/>
  <path class="cls-2" d="M5.24,40.69c-1.47,1.47-1.47,3.86,0,5.33,1.47,1.47,3.86,1.47,5.33,0,1.47-1.47,1.47-3.86,0-5.33,0,0,0,0,0,0-1.47-1.47-3.86-1.47-5.33,0,0,0,0,0,0,0"/>
  <path class="cls-2" d="M154.32,50.49c-.56,1.21-1.06,2.35-1.6,3.48-.5,1.05-1.01,2.09-1.55,3.12-1,1.91-2.02,3.8-3.07,5.69-.74,1.32-1.55,2.6-2.33,3.89-.63,1.04-1.24,2.1-1.89,3.13-1.03,1.61-2.04,3.24-3.15,4.79-1.03,1.55-2.17,3.02-3.4,4.42-1.55,1.67-3.77,2.54-6.04,2.37-2.12-.1-3.38-.89-3.9-3.19-.33-1.47-.52-2.97-.73-4.47-.29-2.04-.54-4.08-.82-6.13-.19-1.37-.38-2.74-.62-4.1-.29-1.6-.61-3.18-.96-4.76-.39-1.75-.8-3.5-1.26-5.23-.36-1.34-.81-2.66-1.26-3.98-.58-1.69-1.15-3.38-1.79-5.05-.57-1.48-1.24-2.92-1.88-4.37-.4-1.06-.87-2.09-1.39-3.09-.63-1.09-1.37-2.1-2.22-3.02-1.39-1.25-3.07-2.12-4.89-2.55-1.17-.38-2.17-1-1.9-2.29,.15-.54,.49-1.01,.96-1.32,2.02-1.3,4.33-1.4,6.64-1.35,2.79-.1,5.55,.65,7.92,2.14,1.18,.89,2.24,1.91,3.18,3.05,.71,.84,1.32,1.77,1.81,2.75,.67,1.27,1.21,2.61,1.82,3.91,.34,.73,.71,1.45,1.01,2.19,.66,1.61,1.28,3.23,1.91,4.84,.38,.97,.78,1.93,1.11,2.92,.59,1.78,1.15,3.57,1.68,5.37,.43,1.45,.82,2.9,1.17,4.37,.27,1.12,.46,2.25,.67,3.38,.36,1.97,.71,3.95,1.05,5.93,.07,.42,.12,.84,.17,1.26,0,.08,.03,.2,.12,.21s.18-.11,.21-.19c.79-1.94,1.61-3.87,2.36-5.83,.68-1.77,1.32-3.56,1.93-5.36,.52-1.51,1.05-3.02,1.44-4.57,.61-2.4,1.13-4.82,1.63-7.24,.65-2.83,.93-5.72,.82-8.62-.07-1.67-.45-3.31-1.12-4.83-.68-1.5-1.63-2.86-2.8-4.02-.26-.26-.13-.38,.19-.51,2.09-.89,4.35-1.28,6.61-1.16,2.62,.04,5.08,1.27,6.67,3.35,1.5,1.92,2.14,4.38,1.78,6.79-.32,1.97-.75,3.93-1.28,5.85-.22,.84-.49,1.66-.81,2.47-.1,.28,.19,.6,.37,.9,1.21,2.01,2.48,3.99,3.66,6.02,.93,1.61,1.78,3.28,2.62,4.94,.94,1.87,1.88,3.75,2.74,5.66,1.04,2.35,2.07,4.72,2.99,7.12,.03,.07,.25,.68,.33,.68,.12,0,.15-.05,.31-.41,.66-1.58,1.31-3.17,1.97-4.76,.51-1.21,1.05-2.41,1.49-3.65,.79-2.19,1.54-4.4,2.25-6.61,.53-1.67,1.01-3.36,1.44-5.07,.36-1.48,.66-2.97,.9-4.47,.32-1.93,.67-3.87,.79-5.82,.06-1.44-.04-2.89-.3-4.31-.18-1.13-.51-2.23-.99-3.27-.48-1-1.08-1.94-1.78-2.8-.26-.33-.58-.64-.88-.98-.1-.09-.11-.24-.02-.35,.04-.04,.08-.07,.14-.08,1.08-.42,2.2-.74,3.34-.96,1.11-.21,2.23-.3,3.36-.26,4.55,.07,8.26,3.67,8.46,8.22,.13,2.19-.17,4.38-.86,6.45-.71,2.19-1.44,4.37-2.26,6.51-.54,1.4-1.23,2.75-1.87,4.12-.74,1.58-1.48,3.16-2.28,4.71-.7,1.36-1.47,2.69-2.23,4.03-.89,1.56-1.8,3.1-2.72,4.64-.94,1.57-1.9,3.13-2.89,4.67-1.07,1.66-2.14,3.33-3.29,4.94-1.01,1.47-2.11,2.88-3.31,4.2-1.07,1.17-2.49,1.94-4.05,2.2-1.32,.28-2.68,.22-3.98-.16-1.26-.41-2.15-1.54-2.25-2.86-.28-2.37-.38-4.75-.54-7.13-.13-1.94-.2-3.89-.38-5.82-.19-2.12-.44-4.24-.73-6.35-.2-1.44-.51-2.86-.79-4.29-.24-1.2-.51-2.4-.77-3.6-.05-.17-.11-.33-.18-.49"/>
  <path class="cls-2" d="M80.92,81.39c-2.29-.03-4.58-.2-6.86-.51-4.08-.5-7.93-1.49-11.1-3.66-2.26-1.43-3.79-3.78-4.16-6.43-.3-1.91-.03-3.86,.77-5.61,.83-1.77,2.41-3.08,4.31-3.55,1.89-.52,3.89-.54,5.79-.06,1.14,.26,2.22,.67,3.34,1.01,.3,.09,.35,.22,.21,.53-.85,1.64-1.46,3.4-1.8,5.22-.28,1.37-.1,2.79,.51,4.06,.82,1.42,2.18,2.45,3.78,2.83,2.95,.77,6.03,.96,9.05,.54,1.78-.13,3.53-.6,5.13-1.38,1.67-.79,2.92-2.27,3.42-4.06,.68-2.28-.01-4.75-1.79-6.33-1.78-1.69-3.84-3.06-6.1-4.04-3.42-1.65-6.86-3.22-10.23-4.88-2.69-1.26-5.18-2.9-7.39-4.89-1.88-1.64-3.18-3.84-3.73-6.27-1.13-5.84,1.61-11.59,7.45-14.9,1.96-1.1,4.05-1.94,6.23-2.48,4.13-.99,8.39-1.29,12.62-.86,2.05,.16,4.08,.51,6.06,1.05,2.8,.67,5.4,1.99,7.59,3.85,1.56,1.32,2.6,3.15,2.92,5.17,.3,1.61,.05,3.28-.69,4.74-.68,1.26-1.85,2.17-3.24,2.52-1.28,.38-2.65,.41-3.94,.07-1.61-.45-2.86-1.71-3.29-3.32-.38-1.09-.65-2.23-1-3.33-.72-2.43-2.64-4.32-5.09-5-2.64-.76-5.43-.81-8.1-.15-1.45,.27-2.78,1-3.78,2.08-1.05,1.18-1.53,2.76-1.32,4.32,.24,1.72,1.15,3.27,2.53,4.32,1.73,1.42,3.65,2.6,5.71,3.49,3.14,1.47,6.33,2.88,9.49,4.38,2.79,1.25,5.39,2.88,7.72,4.85,1.96,1.61,3.44,3.74,4.28,6.14,.63,1.98,.77,4.09,.4,6.13-.37,2.3-1.33,4.46-2.8,6.27-2.11,2.46-4.81,4.34-7.85,5.46-2.65,1.06-5.42,1.77-8.25,2.11-2.25,.32-4.52,.5-6.8,.56"/>
</svg>