<?xml version="1.0" encoding="UTF-8"?><!DOCTYPE svg PUBLIC "-//W3C//DTD SVG 1.1//EN" "http://www.w3.org/Graphics/SVG/1.1/DTD/svg11.dtd"><svg xmlns="http://www.w3.org/2000/svg" xmlns:xlink="http://www.w3.org/1999/xlink"><defs><clipPath id="a"><path data-name="Rechteck 775" style="fill:none" d="M0 0h127.184v15.176H0z"/></clipPath><clipPath id="clippath"><path style="fill:none" d="M127.18 15.17H0V0h127.18"/></clipPath><style>.cls-3{fill:#f37021}</style><style>.cls-1{fill:#fff}</style><style>.cls-1{fill:#f37021}.cls-2{fill:#203062}</style><clipPath id="a"><path data-name="Rechteck 775" style="fill:none" d="M0 0h127.184v15.176H0z"/></clipPath></defs><symbol id="angle-down" viewBox="0 0 384.02 224"><path d="M191.99 224c-8.19 0-16.38-3.12-22.62-9.38L9.38 54.62c-12.5-12.5-12.5-32.74 0-45.24s32.75-12.5 45.25 0L191.99 146.8 329.39 9.4c12.5-12.5 32.75-12.5 45.25 0s12.5 32.75 0 45.25l-160 160c-6.25 6.25-14.45 9.35-22.65 9.35Z"/></symbol><symbol id="angle-left" viewBox="0 0 224.02 384"><path d="M191.99 384c-8.19 0-16.38-3.12-22.62-9.38l-159.99-160c-12.5-12.5-12.5-32.75 0-45.25l160-159.99c12.5-12.5 32.75-12.5 45.25 0s12.5 32.75 0 45.25L77.24 192l137.4 137.4c12.5 12.5 12.5 32.75 0 45.25-6.25 6.25-14.45 9.35-22.65 9.35Z"/></symbol><symbol id="angle-right" viewBox="0 0 224 384.03"><path d="M32 384.03c-8.19 0-16.38-3.12-22.62-9.38-12.5-12.5-12.5-32.75 0-45.25L146.8 192.03 9.38 54.62c-12.5-12.5-12.5-32.74 0-45.24s32.75-12.5 45.25 0l160 160c12.5 12.5 12.5 32.75 0 45.25l-160 160c-6.25 6.3-14.44 9.4-22.63 9.4Z"/></symbol><symbol id="angle-up" viewBox="0 0 384 224"><path d="M352.02 223.92c-8.19 0-16.38-3.12-22.62-9.38L192.02 77.22l-137.4 137.4c-12.5 12.5-32.75 12.5-45.25 0s-12.5-32.75 0-45.25L169.38 9.38c12.5-12.5 32.75-12.5 45.25 0l160 160c12.5 12.5 12.5 32.75 0 45.25-6.2 6.2-14.4 9.3-22.6 9.3Z"/></symbol><symbol id="brand-icon" viewBox="0 0 10.49 15.18"><path d="M.84 10.28a2.873 2.873 0 0 0 0 4.06 2.873 2.873 0 0 0 4.06 0 2.873 2.873 0 0 0 0-4.06 2.873 2.873 0 0 0-4.06 0M.84.84a2.873 2.873 0 0 0 0 4.06c1.12 1.12 2.94 1.12 4.06 0s1.12-2.94 0-4.06a2.873 2.873 0 0 0-4.06 0M5.59 5.58a2.873 2.873 0 0 0 0 4.06 2.873 2.873 0 0 0 4.06 0 2.873 2.873 0 0 0 0-4.06 2.873 2.873 0 0 0-4.06 0"/></symbol><symbol id="catalyst-for-success"><g data-name="Gruppe 271"><g data-name="Gruppe 270" style="clip-path:url(#a)"><path data-name="Pfad 217" d="m25.317 8.318 1.086.275a3.648 3.648 0 0 1-1.229 2.04 3.383 3.383 0 0 1-2.169.7 3.9 3.9 0 0 1-2.158-.54 3.372 3.372 0 0 1-1.266-1.563 5.585 5.585 0 0 1-.434-2.2 4.832 4.832 0 0 1 .491-2.238 3.36 3.36 0 0 1 1.394-1.45 4.08 4.08 0 0 1 1.99-.5 3.364 3.364 0 0 1 2.071.628 3.26 3.26 0 0 1 1.17 1.763l-1.07.252a2.53 2.53 0 0 0-.828-1.3A2.2 2.2 0 0 0 23 3.776a2.658 2.658 0 0 0-1.582.453 2.4 2.4 0 0 0-.893 1.219 4.919 4.919 0 0 0-.258 1.576 5 5 0 0 0 .306 1.827 2.277 2.277 0 0 0 .949 1.168 2.673 2.673 0 0 0 1.394.386 2.332 2.332 0 0 0 1.545-.527 2.69 2.69 0 0 0 .857-1.562" transform="translate(2.397 .357)" style="fill:#fff"/><path data-name="Pfad 218" d="M30.783 10.209a3.757 3.757 0 0 1-1.078.673 3.118 3.118 0 0 1-1.112.2 2.156 2.156 0 0 1-1.505-.479 1.578 1.578 0 0 1-.527-1.223A1.654 1.654 0 0 1 27.28 8a2.453 2.453 0 0 1 .726-.33 7 7 0 0 1 .9-.152 9.24 9.24 0 0 0 1.8-.347c0-.138.006-.226.006-.263a1.116 1.116 0 0 0-.286-.869A1.689 1.689 0 0 0 29.27 5.7a1.787 1.787 0 0 0-1.05.249 1.521 1.521 0 0 0-.5.882l-.986-.134a2.46 2.46 0 0 1 .442-1.023 1.942 1.942 0 0 1 .89-.6 3.984 3.984 0 0 1 1.35-.21 3.543 3.543 0 0 1 1.237.18 1.622 1.622 0 0 1 .7.45 1.58 1.58 0 0 1 .314.686 5.642 5.642 0 0 1 .051.929v1.342a14.321 14.321 0 0 0 .064 1.778 2.249 2.249 0 0 0 .254.713h-1.052a2.115 2.115 0 0 1-.2-.734m-.084-2.25a7.377 7.377 0 0 1-1.646.381 3.757 3.757 0 0 0-.879.2.88.88 0 0 0-.233 1.477 1.316 1.316 0 0 0 .893.269 2.08 2.08 0 0 0 1.036-.254 1.574 1.574 0 0 0 .666-.7 2.437 2.437 0 0 0 .163-1.002z" transform="translate(3.325 .609)" style="fill:#fff"/><path data-name="Pfad 219" d="m35 10.257.145.89a3.749 3.749 0 0 1-.762.09 1.733 1.733 0 0 1-.851-.173.972.972 0 0 1-.425-.457 3.609 3.609 0 0 1-.123-1.189V6h-.739v-.788h.739V3.74l1-.605v2.077H35V6h-1.015v3.473a1.778 1.778 0 0 0 .053.555.419.419 0 0 0 .174.2.67.67 0 0 0 .344.073 3.339 3.339 0 0 0 .444-.044" transform="translate(4.036 .393)" style="fill:#fff"/><path data-name="Pfad 220" d="M39.69 10.209a3.757 3.757 0 0 1-1.078.673 3.118 3.118 0 0 1-1.112.2 2.156 2.156 0 0 1-1.505-.479 1.578 1.578 0 0 1-.527-1.223A1.654 1.654 0 0 1 36.187 8a2.453 2.453 0 0 1 .726-.33 7 7 0 0 1 .9-.152 9.239 9.239 0 0 0 1.8-.347c0-.138.006-.226.006-.263a1.116 1.116 0 0 0-.286-.869 1.689 1.689 0 0 0-1.156-.339 1.787 1.787 0 0 0-1.05.249 1.521 1.521 0 0 0-.5.882l-.986-.134a2.46 2.46 0 0 1 .442-1.023 1.942 1.942 0 0 1 .89-.6 3.984 3.984 0 0 1 1.35-.21 3.543 3.543 0 0 1 1.237.18 1.622 1.622 0 0 1 .7.45 1.58 1.58 0 0 1 .314.686 5.642 5.642 0 0 1 .051.929v1.342a14.321 14.321 0 0 0 .064 1.778 2.249 2.249 0 0 0 .254.713h-1.052a2.115 2.115 0 0 1-.2-.734m-.084-2.25a7.377 7.377 0 0 1-1.646.381 3.757 3.757 0 0 0-.879.2.88.88 0 0 0-.233 1.477 1.316 1.316 0 0 0 .893.269 2.08 2.08 0 0 0 1.036-.254 1.574 1.574 0 0 0 .666-.7 2.437 2.437 0 0 0 .162-1.007z" transform="translate(4.44 .609)" style="fill:#fff"/><path data-name="Rechteck 774" transform="translate(46.833 3.344)" style="fill:#fff" d="M0 0h1.008v8.208H0z"/><path data-name="Pfad 221" d="m44.13 13.218-.113-.946a2.251 2.251 0 0 0 .577.089 1.115 1.115 0 0 0 .538-.111.917.917 0 0 0 .33-.314 4.967 4.967 0 0 0 .308-.749c.018-.056.048-.138.089-.248L43.6 4.982h1.09l1.237 3.443q.241.655.431 1.377a13.586 13.586 0 0 1 .415-1.355l1.27-3.466h1.008l-2.263 6.047a11.809 11.809 0 0 1-.565 1.349 1.985 1.985 0 0 1-.617.731 1.449 1.449 0 0 1-.828.232 2.016 2.016 0 0 1-.649-.123" transform="translate(5.458 .624)" style="fill:#fff"/><path data-name="Pfad 222" d="m49.042 9.168 1-.158a1.4 1.4 0 0 0 .467.919 1.63 1.63 0 0 0 1.072.318 1.581 1.581 0 0 0 1.031-.282.846.846 0 0 0 .335-.664.615.615 0 0 0-.3-.538 4.455 4.455 0 0 0-1.031-.341 9.441 9.441 0 0 1-1.537-.484 1.47 1.47 0 0 1-.871-1.364 1.532 1.532 0 0 1 .182-.737 1.626 1.626 0 0 1 .5-.561 2.1 2.1 0 0 1 .641-.295 3.068 3.068 0 0 1 .871-.12 3.451 3.451 0 0 1 1.229.2 1.664 1.664 0 0 1 .781.547 2.121 2.121 0 0 1 .348.92l-.986.135a1.074 1.074 0 0 0-.389-.717 1.42 1.42 0 0 0-.909-.259 1.647 1.647 0 0 0-.991.231.667.667 0 0 0-.3.537.555.555 0 0 0 .123.353.893.893 0 0 0 .387.269q.15.056.89.257a12.436 12.436 0 0 1 1.492.468 1.52 1.52 0 0 1 .664.529 1.478 1.478 0 0 1 .241.863 1.694 1.694 0 0 1-.294.949 1.9 1.9 0 0 1-.848.689 3.077 3.077 0 0 1-1.255.243 2.8 2.8 0 0 1-1.767-.48 2.24 2.24 0 0 1-.775-1.428" transform="translate(6.139 .609)" style="fill:#fff"/><path data-name="Pfad 223" d="m56.961 10.257.145.89a3.749 3.749 0 0 1-.762.09 1.733 1.733 0 0 1-.851-.173.972.972 0 0 1-.425-.457 3.609 3.609 0 0 1-.123-1.189V6h-.739v-.788h.739V3.74l1-.605v2.077h1.014V6h-1.011v3.473a1.779 1.779 0 0 0 .053.555.419.419 0 0 0 .174.2.67.67 0 0 0 .344.073 3.339 3.339 0 0 0 .442-.039" transform="translate(6.785 .393)" style="fill:#fff"/><path data-name="Pfad 224" d="M61.082 11.195V6.032h-.89v-.784h.89v-.632a2.738 2.738 0 0 1 .107-.89 1.282 1.282 0 0 1 .511-.636 1.847 1.847 0 0 1 1.027-.243 4.994 4.994 0 0 1 .941.1l-.152.88a3.283 3.283 0 0 0-.593-.056.883.883 0 0 0-.649.2 1.06 1.06 0 0 0-.19.734v.548h1.159v.784h-1.158v5.162z" transform="translate(7.534 .357)" style="fill:#fff"/><path data-name="Pfad 225" d="M63.247 7.97a3.065 3.065 0 0 1 .918-2.447 2.771 2.771 0 0 1 1.87-.66 2.668 2.668 0 0 1 2.005.8 3.058 3.058 0 0 1 .779 2.22 3.951 3.951 0 0 1-.344 1.806 2.431 2.431 0 0 1-1 1.022 2.914 2.914 0 0 1-1.437.363 2.673 2.673 0 0 1-2.017-.8 3.194 3.194 0 0 1-.771-2.307m1.036 0a2.532 2.532 0 0 0 .5 1.71 1.659 1.659 0 0 0 2.5 0 2.6 2.6 0 0 0 .5-1.742 2.455 2.455 0 0 0-.5-1.671 1.662 1.662 0 0 0-2.5 0 2.523 2.523 0 0 0-.5 1.708" transform="translate(7.917 .609)" style="fill:#fff"/><path data-name="Pfad 226" d="M69.432 10.942V5h.907v.9a2.481 2.481 0 0 1 .641-.834 1.123 1.123 0 0 1 .647-.2 1.962 1.962 0 0 1 1.035.325l-.347.935a1.436 1.436 0 0 0-.739-.218.959.959 0 0 0-.594.2 1.072 1.072 0 0 0-.375.552 3.9 3.9 0 0 0-.168 1.175v3.113z" transform="translate(8.691 .609)" style="fill:#fff"/><path data-name="Pfad 227" d="m75.716 9.168 1-.158a1.4 1.4 0 0 0 .467.919 1.63 1.63 0 0 0 1.072.318 1.581 1.581 0 0 0 1.031-.282.846.846 0 0 0 .335-.664.615.615 0 0 0-.3-.538 4.455 4.455 0 0 0-1.031-.341 9.441 9.441 0 0 1-1.537-.484 1.47 1.47 0 0 1-.871-1.364 1.532 1.532 0 0 1 .182-.737 1.626 1.626 0 0 1 .5-.561 2.1 2.1 0 0 1 .641-.295 3.068 3.068 0 0 1 .871-.12 3.451 3.451 0 0 1 1.229.2 1.664 1.664 0 0 1 .781.547 2.121 2.121 0 0 1 .348.92l-.986.135a1.074 1.074 0 0 0-.389-.717 1.42 1.42 0 0 0-.909-.259 1.647 1.647 0 0 0-.991.231.667.667 0 0 0-.3.537.555.555 0 0 0 .123.353.893.893 0 0 0 .387.269q.15.056.89.257a12.437 12.437 0 0 1 1.491.466 1.52 1.52 0 0 1 .664.529 1.478 1.478 0 0 1 .241.863 1.694 1.694 0 0 1-.294.949 1.9 1.9 0 0 1-.848.689 3.077 3.077 0 0 1-1.255.243 2.8 2.8 0 0 1-1.767-.48 2.24 2.24 0 0 1-.775-1.428" transform="translate(9.477 .609)" style="fill:#fff"/><path data-name="Pfad 228" d="M85.273 10.928v-.873a2.175 2.175 0 0 1-1.887 1.007 2.39 2.39 0 0 1-.982-.2 1.607 1.607 0 0 1-.677-.506 1.9 1.9 0 0 1-.312-.747 5.2 5.2 0 0 1-.061-.942V4.981h1.007v3.3a5.931 5.931 0 0 0 .062 1.064 1.055 1.055 0 0 0 .4.624 1.253 1.253 0 0 0 .762.226 1.658 1.658 0 0 0 .852-.232A1.3 1.3 0 0 0 85 9.33a3.206 3.206 0 0 0 .164-1.162V4.981h1.008v5.947z" transform="translate(10.183 .624)" style="fill:#fff"/><path data-name="Pfad 229" d="m91.16 8.765.991.128a2.577 2.577 0 0 1-.831 1.6 2.42 2.42 0 0 1-1.644.579 2.553 2.553 0 0 1-1.962-.8 3.24 3.24 0 0 1-.741-2.287 4.135 4.135 0 0 1 .318-1.684 2.229 2.229 0 0 1 .972-1.084 2.88 2.88 0 0 1 1.419-.361 2.471 2.471 0 0 1 1.585.489 2.252 2.252 0 0 1 .789 1.392l-.98.151a1.624 1.624 0 0 0-.5-.9 1.284 1.284 0 0 0-.86-.3 1.564 1.564 0 0 0-1.238.547 2.589 2.589 0 0 0-.476 1.726 2.672 2.672 0 0 0 .46 1.742 1.49 1.49 0 0 0 1.2.543 1.41 1.41 0 0 0 .991-.365 1.8 1.8 0 0 0 .5-1.12" transform="translate(10.886 .609)" style="fill:#fff"/><path data-name="Pfad 230" d="m96.459 8.765.991.128a2.577 2.577 0 0 1-.831 1.6 2.42 2.42 0 0 1-1.644.579 2.553 2.553 0 0 1-1.962-.8 3.24 3.24 0 0 1-.741-2.287 4.135 4.135 0 0 1 .318-1.684 2.229 2.229 0 0 1 .972-1.084 2.88 2.88 0 0 1 1.419-.361 2.471 2.471 0 0 1 1.585.489 2.252 2.252 0 0 1 .789 1.392l-.98.151a1.623 1.623 0 0 0-.5-.9 1.284 1.284 0 0 0-.86-.3 1.564 1.564 0 0 0-1.238.547 2.589 2.589 0 0 0-.476 1.726 2.672 2.672 0 0 0 .46 1.742 1.49 1.49 0 0 0 1.2.543 1.41 1.41 0 0 0 .991-.365 1.8 1.8 0 0 0 .5-1.12" transform="translate(11.55 .609)" style="fill:#fff"/><path data-name="Pfad 231" d="m101.952 9.028 1.041.128a2.54 2.54 0 0 1-.913 1.417 3.091 3.091 0 0 1-3.77-.3 3.139 3.139 0 0 1-.764-2.254 3.285 3.285 0 0 1 .773-2.329 2.612 2.612 0 0 1 2-.828 2.542 2.542 0 0 1 1.949.811 3.225 3.225 0 0 1 .755 2.284c0 .06 0 .15-.006.269h-4.43a2.287 2.287 0 0 0 .555 1.5 1.651 1.651 0 0 0 1.243.521 1.549 1.549 0 0 0 .946-.291 1.937 1.937 0 0 0 .621-.929M98.643 7.4h3.32a2.02 2.02 0 0 0-.38-1.125 1.548 1.548 0 0 0-1.249-.583 1.6 1.6 0 0 0-1.168.465 1.844 1.844 0 0 0-.523 1.243" transform="translate(12.21 .609)" style="fill:#fff"/><path data-name="Pfad 232" d="m103.347 9.168 1-.158a1.4 1.4 0 0 0 .467.919 1.63 1.63 0 0 0 1.072.318 1.581 1.581 0 0 0 1.031-.282.846.846 0 0 0 .335-.664.615.615 0 0 0-.3-.538 4.455 4.455 0 0 0-1.031-.341 9.441 9.441 0 0 1-1.537-.484 1.47 1.47 0 0 1-.871-1.364 1.532 1.532 0 0 1 .182-.737 1.626 1.626 0 0 1 .5-.561 2.1 2.1 0 0 1 .641-.295 3.068 3.068 0 0 1 .871-.12 3.451 3.451 0 0 1 1.229.2 1.664 1.664 0 0 1 .781.547 2.121 2.121 0 0 1 .348.92l-.986.135a1.074 1.074 0 0 0-.389-.717 1.42 1.42 0 0 0-.909-.259 1.647 1.647 0 0 0-.991.231.667.667 0 0 0-.3.537.555.555 0 0 0 .123.353.893.893 0 0 0 .387.272q.15.056.89.257a12.436 12.436 0 0 1 1.492.468 1.52 1.52 0 0 1 .664.529 1.478 1.478 0 0 1 .241.863 1.694 1.694 0 0 1-.294.949 1.9 1.9 0 0 1-.848.689 3.077 3.077 0 0 1-1.255.243 2.8 2.8 0 0 1-1.767-.48 2.24 2.24 0 0 1-.775-1.428" transform="translate(12.936 .609)" style="fill:#fff"/><path data-name="Pfad 233" d="m108.647 9.168 1-.158a1.4 1.4 0 0 0 .467.919 1.63 1.63 0 0 0 1.072.318 1.581 1.581 0 0 0 1.031-.282.846.846 0 0 0 .335-.664.615.615 0 0 0-.3-.538 4.455 4.455 0 0 0-1.031-.341 9.441 9.441 0 0 1-1.537-.484 1.47 1.47 0 0 1-.871-1.364 1.532 1.532 0 0 1 .187-.735 1.626 1.626 0 0 1 .5-.561 2.1 2.1 0 0 1 .641-.295 3.068 3.068 0 0 1 .871-.12 3.451 3.451 0 0 1 1.229.2 1.664 1.664 0 0 1 .781.547 2.121 2.121 0 0 1 .348.92l-.986.135a1.074 1.074 0 0 0-.389-.717 1.42 1.42 0 0 0-.909-.259 1.647 1.647 0 0 0-.991.231.667.667 0 0 0-.3.537.555.555 0 0 0 .123.353.893.893 0 0 0 .387.269q.15.056.89.257a12.436 12.436 0 0 1 1.492.468 1.52 1.52 0 0 1 .664.529 1.478 1.478 0 0 1 .241.863 1.694 1.694 0 0 1-.294.949 1.9 1.9 0 0 1-.848.689 3.078 3.078 0 0 1-1.255.243 2.8 2.8 0 0 1-1.767-.48 2.24 2.24 0 0 1-.775-1.428" transform="translate(13.599 .609)" style="fill:#fff"/><path data-name="Pfad 234" d="M.84 9.228a2.871 2.871 0 1 0 4.06 0 2.87 2.87 0 0 0-4.06 0" transform="translate(0 1.05)" style="fill:#f37021"/><path data-name="Pfad 235" d="M.84.842a2.871 2.871 0 1 0 4.06 0 2.872 2.872 0 0 0-4.06 0" style="fill:#f37021"/><path data-name="Pfad 236" d="M5.056 5.058a2.871 2.871 0 1 0 4.06 0 2.87 2.87 0 0 0-4.06 0" transform="translate(.528 .528)" style="fill:#f37021"/></g></g></symbol><symbol id="check" viewBox="0 0 512 381.8"><path d="M173.9 374.31 7.5 207.91c-10-10-10-26.21 0-36.2l36.2-36.2c10-10 26.21-10 36.2 0L192 247.6 432.09 7.5c10-10 26.21-10 36.2 0l36.2 36.2c10 10 10 26.21 0 36.2L210.1 374.31c-10 10-26.21 10-36.2 0Z"/></symbol><symbol id="facebook" viewBox="0 0 274.22 512"><path d="m256.25 288 14.22-92.66h-88.91v-60.13c0-25.35 12.42-50.06 52.24-50.06h40.42V6.26S237.54 0 202.47 0C129.25 0 81.39 44.38 81.39 124.72v70.62H0V288h81.39v224h100.17V288h74.69Z"/></symbol><symbol id="favicon" viewBox="0 0 10.49 15.18"><g style="clip-path:url(#clippath)"><path class="cls-3" d="M.84 10.28a2.873 2.873 0 0 0 0 4.06 2.873 2.873 0 0 0 4.06 0 2.873 2.873 0 0 0 0-4.06 2.873 2.873 0 0 0-4.06 0M.84.84a2.873 2.873 0 0 0 0 4.06c1.12 1.12 2.94 1.12 4.06 0s1.12-2.94 0-4.06a2.873 2.873 0 0 0-4.06 0M5.59 5.58a2.873 2.873 0 0 0 0 4.06 2.873 2.873 0 0 0 4.06 0 2.873 2.873 0 0 0 0-4.06 2.873 2.873 0 0 0-4.06 0"/></g></symbol><symbol id="globe-icon" viewBox="0 0 25.96 25.96"><path class="cls-1" d="M12.98 25.96C5.82 25.95 0 20.15 0 12.98 0 5.82 5.82 0 12.98 0c7.17 0 12.97 5.82 12.98 12.98 0 7.17-5.82 12.97-12.98 12.98Zm0-24.37c-6.29 0-11.39 5.1-11.39 11.39 0 6.29 5.1 11.39 11.39 11.39 6.29 0 11.39-5.1 11.39-11.39 0-6.29-5.1-11.39-11.39-11.39Z"/><path class="cls-1" d="M23.08 20.58a.73.73 0 0 1-.41-.12c-1.9-1.15-17.47-1.15-19.37 0-.38.22-.86.11-1.09-.27a.796.796 0 0 1 .27-1.09c2.46-1.49 18.57-1.49 21.02 0 .37.23.49.72.27 1.09a.78.78 0 0 1-.68.38ZM12.98 8.8c-4.92 0-9.84-.4-11.02-1.2a.8.8 0 0 1-.21-1.1.8.8 0 0 1 1.1-.21c1.8 1.22 18.46 1.22 20.26 0a.8.8 0 0 1 1.1.21.8.8 0 0 1-.21 1.1c-1.18.8-6.1 1.2-11.01 1.2Z"/><path class="cls-1" d="M12.98 25.96c-2.18 0-6.62-6.01-6.62-12.98S10.8 0 12.98 0s6.63 6.01 6.63 12.98-4.45 12.98-6.63 12.98Zm0-24.37c-1.04.08-5.03 5.08-5.03 11.39s3.99 11.31 5.04 11.39c1.04-.08 5.03-5.08 5.03-11.39S14.03 1.67 12.98 1.59Z"/><path class="cls-1" d="M25.17 14.31H.79c-.44 0-.79-.36-.79-.79 0-.44.36-.79.79-.79h24.38c.44 0 .79.36.79.79 0 .44-.36.79-.79.79Z"/></symbol><symbol id="instagram" viewBox="0 0 448.25 448.15"><path d="M224.18 109.18c-63.6 0-114.9 51.3-114.9 114.9s51.3 114.9 114.9 114.9 114.9-51.3 114.9-114.9-51.3-114.9-114.9-114.9Zm0 189.6c-41.1 0-74.7-33.5-74.7-74.7s33.5-74.7 74.7-74.7 74.7 33.5 74.7 74.7-33.6 74.7-74.7 74.7Zm146.39-194.3c0 14.9-12 26.8-26.8 26.8s-26.8-12-26.8-26.8 12-26.8 26.8-26.8 26.8 12 26.8 26.8Zm76.1 27.2c-1.7-35.9-9.9-67.7-36.2-93.9-26.2-26.2-58-34.41-93.9-36.2-37-2.11-147.89-2.11-184.89 0-35.8 1.7-67.6 9.9-93.9 36.1s-34.41 58-36.21 93.89c-2.1 37-2.1 147.9 0 184.9 1.7 35.9 9.9 67.7 36.2 93.9 26.3 26.2 58 34.4 93.9 36.2 37 2.1 147.9 2.1 184.9 0 35.9-1.7 67.7-9.9 93.9-36.2 26.2-26.2 34.4-58 36.2-93.9 2.1-37 2.1-147.8 0-184.8Zm-47.8 224.5c-7.8 19.6-22.9 34.7-42.6 42.6-29.5 11.7-99.5 9-132.1 9s-102.7 2.6-132.1-9c-19.6-7.8-34.7-22.9-42.6-42.6-11.7-29.5-9-99.5-9-132.1s-2.6-102.7 9-132.1c7.8-19.6 22.9-34.7 42.6-42.6 29.5-11.7 99.5-9 132.1-9s102.7-2.6 132.1 9c19.6 7.8 34.7 22.9 42.6 42.6 11.7 29.5 9 99.5 9 132.1s2.7 102.7-9 132.1Z"/></symbol><symbol id="linkedin" viewBox="0 0 448 447.98"><path d="M100.28 447.98H7.4v-299.1h92.88v299.1Zm-46.49-339.9C24.09 108.08 0 83.48 0 53.78 0 24.07 24.09 0 53.8 0c29.7 0 53.78 24.08 53.78 53.78 0 29.7-24.1 54.3-53.79 54.3Zm394.11 339.9h-92.68v-145.6c0-34.7-.7-79.2-48.29-79.2s-55.69 37.7-55.69 76.7v148.1h-92.78v-299.1h89.08v40.8h1.3c12.4-23.5 42.69-48.3 87.88-48.3 94 0 111.28 61.9 111.28 142.3v164.3h-.1Z"/></symbol><symbol id="logo-big" viewBox="0 0 189.72 81.39"><path class="cls-1" d="M30.52 13.09c-2.1 2.1-2.1 5.52 0 7.62 2.1 2.1 5.52 2.1 7.62 0 2.1-2.1 2.1-5.51 0-7.62-2.1-2.1-5.52-2.1-7.62 0"/><path class="cls-2" d="M14.16 49.47a3.772 3.772 0 0 0 0 5.33 3.772 3.772 0 0 0 5.33 0 3.772 3.772 0 0 0 0-5.33 3.772 3.772 0 0 0-5.33 0"/><path class="cls-2" d="M14.16 49.47a3.772 3.772 0 0 0 0 5.33 3.772 3.772 0 0 0 5.33 0 3.772 3.772 0 0 0 0-5.33 3.772 3.772 0 0 0-5.33 0M6.4 6.52c-.82.82-.82 2.14 0 2.95s2.14.82 2.95 0c.82-.82.82-2.14 0-2.95-.82-.82-2.14-.82-2.95 0M15.27.61c-.82.82-.82 2.14 0 2.95s2.14.82 2.95 0 .82-2.14 0-2.95c-.81-.82-2.14-.82-2.95 0M23.96 6.6c-.82.82-.81 2.14 0 2.96.82.82 2.14.81 2.96 0a2.088 2.088 0 1 0-2.96-2.95M49.87 33.05a2.085 2.085 0 1 0 2.95 0c-.82-.82-2.14-.82-2.96 0"/><path class="cls-1" d="M30.52 30.74c-2.1 2.1-2.1 5.51 0 7.62 2.1 2.1 5.51 2.1 7.62 0a5.384 5.384 0 1 0-7.62-7.61M39.33 21.93c-2.1 2.1-2.1 5.52 0 7.62 2.1 2.1 5.52 2.1 7.62 0 2.1-2.1 2.1-5.51 0-7.62-2.1-2.1-5.52-2.1-7.62 0"/><path class="cls-2" d="M14.12 31.95a3.784 3.784 0 0 0 0 5.34 3.784 3.784 0 0 0 5.34 0 3.784 3.784 0 0 0 0-5.34 3.784 3.784 0 0 0-5.34 0M31.7 49.48c-1.47 1.47-1.47 3.86 0 5.33s3.86 1.47 5.33 0a3.772 3.772 0 0 0 0-5.33 3.784 3.784 0 0 0-5.34 0M40.36 40.66c-1.47 1.47-1.47 3.86 0 5.33s3.86 1.47 5.33 0a3.772 3.772 0 0 0 0-5.33 3.784 3.784 0 0 0-5.34 0M22.78 40.67a3.772 3.772 0 0 0 0 5.33c1.47 1.47 3.86 1.47 5.33 0s1.47-3.86 0-5.33a3.772 3.772 0 0 0-5.33 0M22.78 23.09a3.772 3.772 0 0 0 0 5.33c1.47 1.47 3.86 1.47 5.33 0s1.47-3.86 0-5.33a3.772 3.772 0 0 0-5.33 0M5.24 40.69a3.772 3.772 0 0 0 0 5.33 3.772 3.772 0 0 0 5.33 0 3.772 3.772 0 0 0 0-5.33 3.772 3.772 0 0 0-5.33 0M14.16 14.18a3.775 3.775 0 1 0 5.34 5.34 3.766 3.766 0 0 0 0-5.34 3.772 3.772 0 0 0-5.33 0M.42 33.53a1.436 1.436 0 0 0 2.03 2.03 1.436 1.436 0 0 0-2.03-2.03M.42 15.88a1.436 1.436 0 0 0 2.03 2.03 1.436 1.436 0 0 0-2.03-2.03M6.39 24.31c-.81.82-.81 2.14 0 2.95.82.81 2.14.81 2.95 0a2.088 2.088 0 1 0-2.96-2.95M49.87 15.39a2.085 2.085 0 1 0 2.95 0c-.81-.82-2.14-.82-2.95 0M41.64 6.7c-.82.82-.82 2.14 0 2.96s2.14.82 2.96 0c.82-.82.82-2.14 0-2.96-.82-.82-2.14-.82-2.96 0M32.88.62c-.82.82-.82 2.14 0 2.95.82.82 2.14.82 2.95 0s.82-2.14 0-2.95c-.82-.82-2.14-.82-2.95 0"/><path class="cls-2" d="M31.7 49.48c-1.47 1.47-1.47 3.86 0 5.33s3.86 1.47 5.33 0a3.772 3.772 0 0 0 0-5.33 3.784 3.784 0 0 0-5.34 0M40.36 40.66c-1.47 1.47-1.47 3.86 0 5.33s3.86 1.47 5.33 0a3.772 3.772 0 0 0 0-5.33 3.784 3.784 0 0 0-5.34 0M22.78 40.67a3.772 3.772 0 0 0 0 5.33c1.47 1.47 3.86 1.47 5.33 0s1.47-3.86 0-5.33a3.772 3.772 0 0 0-5.33 0M5.24 40.69a3.772 3.772 0 0 0 0 5.33 3.772 3.772 0 0 0 5.33 0 3.772 3.772 0 0 0 0-5.33 3.772 3.772 0 0 0-5.33 0M154.32 50.49c-.56 1.21-1.06 2.35-1.6 3.48-.5 1.05-1.01 2.09-1.55 3.12-1 1.91-2.02 3.8-3.07 5.69-.74 1.32-1.55 2.6-2.33 3.89-.63 1.04-1.24 2.1-1.89 3.13-1.03 1.61-2.04 3.24-3.15 4.79a41.512 41.512 0 0 1-3.4 4.42 7.473 7.473 0 0 1-6.04 2.37c-2.12-.1-3.38-.89-3.9-3.19-.33-1.47-.52-2.97-.73-4.47-.29-2.04-.54-4.08-.82-6.13-.19-1.37-.38-2.74-.62-4.1-.29-1.6-.61-3.18-.96-4.76-.39-1.75-.8-3.5-1.26-5.23-.36-1.34-.81-2.66-1.26-3.98-.58-1.69-1.15-3.38-1.79-5.05-.57-1.48-1.24-2.92-1.88-4.37-.4-1.06-.87-2.09-1.39-3.09a16.9 16.9 0 0 0-2.22-3.02 11.123 11.123 0 0 0-4.89-2.55c-1.17-.38-2.17-1-1.9-2.29.15-.54.49-1.01.96-1.32 2.02-1.3 4.33-1.4 6.64-1.35 2.79-.1 5.55.65 7.92 2.14 1.18.89 2.24 1.91 3.18 3.05.71.84 1.32 1.77 1.81 2.75.67 1.27 1.21 2.61 1.82 3.91.34.73.71 1.45 1.01 2.19.66 1.61 1.28 3.23 1.91 4.84.38.97.78 1.93 1.11 2.92a166.9 166.9 0 0 1 1.68 5.37c.43 1.45.82 2.9 1.17 4.37.27 1.12.46 2.25.67 3.38.36 1.97.71 3.95 1.05 5.93.07.42.12.84.17 1.26 0 .08.03.2.12.21s.18-.11.21-.19c.79-1.94 1.61-3.87 2.36-5.83.68-1.77 1.32-3.56 1.93-5.36.52-1.51 1.05-3.02 1.44-4.57.61-2.4 1.13-4.82 1.63-7.24.65-2.83.93-5.72.82-8.62-.07-1.67-.45-3.31-1.12-4.83-.68-1.5-1.63-2.86-2.8-4.02-.26-.26-.13-.38.19-.51a14.85 14.85 0 0 1 6.61-1.16c2.62.04 5.08 1.27 6.67 3.35a8.9 8.9 0 0 1 1.78 6.79c-.32 1.97-.75 3.93-1.28 5.85a21.6 21.6 0 0 1-.81 2.47c-.1.28.19.6.37.9 1.21 2.01 2.48 3.99 3.66 6.02.93 1.61 1.78 3.28 2.62 4.94.94 1.87 1.88 3.75 2.74 5.66 1.04 2.35 2.07 4.72 2.99 7.12.03.07.25.68.33.68.12 0 .15-.05.31-.41.66-1.58 1.31-3.17 1.97-4.76.51-1.21 1.05-2.41 1.49-3.65.79-2.19 1.54-4.4 2.25-6.61.53-1.67 1.01-3.36 1.44-5.07.36-1.48.66-2.97.9-4.47.32-1.93.67-3.87.79-5.82.06-1.44-.04-2.89-.3-4.31-.18-1.13-.51-2.23-.99-3.27-.48-1-1.08-1.94-1.78-2.8-.26-.33-.58-.64-.88-.98a.25.25 0 0 1 .12-.43c1.08-.42 2.2-.74 3.34-.96 1.11-.21 2.23-.3 3.36-.26 4.55.07 8.26 3.67 8.46 8.22.13 2.19-.17 4.38-.86 6.45-.71 2.19-1.44 4.37-2.26 6.51-.54 1.4-1.23 2.75-1.87 4.12-.74 1.58-1.48 3.16-2.28 4.71-.7 1.36-1.47 2.69-2.23 4.03-.89 1.56-1.8 3.1-2.72 4.64-.94 1.57-1.9 3.13-2.89 4.67-1.07 1.66-2.14 3.33-3.29 4.94a39.422 39.422 0 0 1-3.31 4.2 7.045 7.045 0 0 1-4.05 2.2c-1.32.28-2.68.22-3.98-.16a3.27 3.27 0 0 1-2.25-2.86c-.28-2.37-.38-4.75-.54-7.13-.13-1.94-.2-3.89-.38-5.82-.19-2.12-.44-4.24-.73-6.35-.2-1.44-.51-2.86-.79-4.29-.24-1.2-.51-2.4-.77-3.6-.05-.17-.11-.33-.18-.49M80.92 81.39c-2.29-.03-4.58-.2-6.86-.51-4.08-.5-7.93-1.49-11.1-3.66a9.112 9.112 0 0 1-4.16-6.43c-.3-1.91-.03-3.86.77-5.61a6.488 6.488 0 0 1 4.31-3.55c1.89-.52 3.89-.54 5.79-.06 1.14.26 2.22.67 3.34 1.01.3.09.35.22.21.53-.85 1.64-1.46 3.4-1.8 5.22a6.4 6.4 0 0 0 .51 4.06 5.961 5.961 0 0 0 3.78 2.83c2.95.77 6.03.96 9.05.54 1.78-.13 3.53-.6 5.13-1.38a6.392 6.392 0 0 0 3.42-4.06 6.12 6.12 0 0 0-1.79-6.33 20.982 20.982 0 0 0-6.1-4.04c-3.42-1.65-6.86-3.22-10.23-4.88-2.69-1.26-5.18-2.9-7.39-4.89a11.76 11.76 0 0 1-3.73-6.27c-1.13-5.84 1.61-11.59 7.45-14.9 1.96-1.1 4.05-1.94 6.23-2.48 4.13-.99 8.39-1.29 12.62-.86 2.05.16 4.08.51 6.06 1.05 2.8.67 5.4 1.99 7.59 3.85a8.52 8.52 0 0 1 2.92 5.17c.3 1.61.05 3.28-.69 4.74a5.082 5.082 0 0 1-3.24 2.52c-1.28.38-2.65.41-3.94.07a4.711 4.711 0 0 1-3.29-3.32c-.38-1.09-.65-2.23-1-3.33a7.357 7.357 0 0 0-5.09-5 15.67 15.67 0 0 0-8.1-.15c-1.45.27-2.78 1-3.78 2.08a5.415 5.415 0 0 0-1.32 4.32 6.566 6.566 0 0 0 2.53 4.32c1.73 1.42 3.65 2.6 5.71 3.49 3.14 1.47 6.33 2.88 9.49 4.38a32.59 32.59 0 0 1 7.72 4.85c1.96 1.61 3.44 3.74 4.28 6.14.63 1.98.77 4.09.4 6.13-.37 2.3-1.33 4.46-2.8 6.27a18.991 18.991 0 0 1-7.85 5.46 32.709 32.709 0 0 1-8.25 2.11c-2.25.32-4.52.5-6.8.56"/></symbol><symbol id="logo-small"><g data-name="Gruppe 271"><g data-name="Gruppe 270" style="clip-path:url(#a)"><path data-name="Pfad 217" d="m25.317 8.318 1.086.275a3.648 3.648 0 0 1-1.229 2.04 3.383 3.383 0 0 1-2.169.7 3.9 3.9 0 0 1-2.158-.54 3.372 3.372 0 0 1-1.266-1.563 5.585 5.585 0 0 1-.434-2.2 4.832 4.832 0 0 1 .491-2.238 3.36 3.36 0 0 1 1.394-1.45 4.08 4.08 0 0 1 1.99-.5 3.364 3.364 0 0 1 2.071.628 3.26 3.26 0 0 1 1.17 1.763l-1.07.252a2.53 2.53 0 0 0-.828-1.3A2.2 2.2 0 0 0 23 3.776a2.658 2.658 0 0 0-1.582.453 2.4 2.4 0 0 0-.893 1.219 4.919 4.919 0 0 0-.258 1.576 5 5 0 0 0 .306 1.827 2.277 2.277 0 0 0 .949 1.168 2.673 2.673 0 0 0 1.394.386 2.332 2.332 0 0 0 1.545-.527 2.69 2.69 0 0 0 .857-1.562" transform="translate(2.397 .357)" style="fill:#fff"/><path data-name="Pfad 218" d="M30.783 10.209a3.757 3.757 0 0 1-1.078.673 3.118 3.118 0 0 1-1.112.2 2.156 2.156 0 0 1-1.505-.479 1.578 1.578 0 0 1-.527-1.223A1.654 1.654 0 0 1 27.28 8a2.453 2.453 0 0 1 .726-.33 7 7 0 0 1 .9-.152 9.24 9.24 0 0 0 1.8-.347c0-.138.006-.226.006-.263a1.116 1.116 0 0 0-.286-.869A1.689 1.689 0 0 0 29.27 5.7a1.787 1.787 0 0 0-1.05.249 1.521 1.521 0 0 0-.5.882l-.986-.134a2.46 2.46 0 0 1 .442-1.023 1.942 1.942 0 0 1 .89-.6 3.984 3.984 0 0 1 1.35-.21 3.543 3.543 0 0 1 1.237.18 1.622 1.622 0 0 1 .7.45 1.58 1.58 0 0 1 .314.686 5.642 5.642 0 0 1 .051.929v1.342a14.321 14.321 0 0 0 .064 1.778 2.249 2.249 0 0 0 .254.713h-1.052a2.115 2.115 0 0 1-.2-.734m-.084-2.25a7.377 7.377 0 0 1-1.646.381 3.757 3.757 0 0 0-.879.2.88.88 0 0 0-.233 1.477 1.316 1.316 0 0 0 .893.269 2.08 2.08 0 0 0 1.036-.254 1.574 1.574 0 0 0 .666-.7 2.437 2.437 0 0 0 .163-1.002z" transform="translate(3.325 .609)" style="fill:#fff"/><path data-name="Pfad 219" d="m35 10.257.145.89a3.749 3.749 0 0 1-.762.09 1.733 1.733 0 0 1-.851-.173.972.972 0 0 1-.425-.457 3.609 3.609 0 0 1-.123-1.189V6h-.739v-.788h.739V3.74l1-.605v2.077H35V6h-1.015v3.473a1.778 1.778 0 0 0 .053.555.419.419 0 0 0 .174.2.67.67 0 0 0 .344.073 3.339 3.339 0 0 0 .444-.044" transform="translate(4.036 .393)" style="fill:#fff"/><path data-name="Pfad 220" d="M39.69 10.209a3.757 3.757 0 0 1-1.078.673 3.118 3.118 0 0 1-1.112.2 2.156 2.156 0 0 1-1.505-.479 1.578 1.578 0 0 1-.527-1.223A1.654 1.654 0 0 1 36.187 8a2.453 2.453 0 0 1 .726-.33 7 7 0 0 1 .9-.152 9.239 9.239 0 0 0 1.8-.347c0-.138.006-.226.006-.263a1.116 1.116 0 0 0-.286-.869 1.689 1.689 0 0 0-1.156-.339 1.787 1.787 0 0 0-1.05.249 1.521 1.521 0 0 0-.5.882l-.986-.134a2.46 2.46 0 0 1 .442-1.023 1.942 1.942 0 0 1 .89-.6 3.984 3.984 0 0 1 1.35-.21 3.543 3.543 0 0 1 1.237.18 1.622 1.622 0 0 1 .7.45 1.58 1.58 0 0 1 .314.686 5.642 5.642 0 0 1 .051.929v1.342a14.321 14.321 0 0 0 .064 1.778 2.249 2.249 0 0 0 .254.713h-1.052a2.115 2.115 0 0 1-.2-.734m-.084-2.25a7.377 7.377 0 0 1-1.646.381 3.757 3.757 0 0 0-.879.2.88.88 0 0 0-.233 1.477 1.316 1.316 0 0 0 .893.269 2.08 2.08 0 0 0 1.036-.254 1.574 1.574 0 0 0 .666-.7 2.437 2.437 0 0 0 .162-1.007z" transform="translate(4.44 .609)" style="fill:#fff"/><path data-name="Rechteck 774" transform="translate(46.833 3.344)" style="fill:#fff" d="M0 0h1.008v8.208H0z"/><path data-name="Pfad 221" d="m44.13 13.218-.113-.946a2.251 2.251 0 0 0 .577.089 1.115 1.115 0 0 0 .538-.111.917.917 0 0 0 .33-.314 4.967 4.967 0 0 0 .308-.749c.018-.056.048-.138.089-.248L43.6 4.982h1.09l1.237 3.443q.241.655.431 1.377a13.586 13.586 0 0 1 .415-1.355l1.27-3.466h1.008l-2.263 6.047a11.809 11.809 0 0 1-.565 1.349 1.985 1.985 0 0 1-.617.731 1.449 1.449 0 0 1-.828.232 2.016 2.016 0 0 1-.649-.123" transform="translate(5.458 .624)" style="fill:#fff"/><path data-name="Pfad 222" d="m49.042 9.168 1-.158a1.4 1.4 0 0 0 .467.919 1.63 1.63 0 0 0 1.072.318 1.581 1.581 0 0 0 1.031-.282.846.846 0 0 0 .335-.664.615.615 0 0 0-.3-.538 4.455 4.455 0 0 0-1.031-.341 9.441 9.441 0 0 1-1.537-.484 1.47 1.47 0 0 1-.871-1.364 1.532 1.532 0 0 1 .182-.737 1.626 1.626 0 0 1 .5-.561 2.1 2.1 0 0 1 .641-.295 3.068 3.068 0 0 1 .871-.12 3.451 3.451 0 0 1 1.229.2 1.664 1.664 0 0 1 .781.547 2.121 2.121 0 0 1 .348.92l-.986.135a1.074 1.074 0 0 0-.389-.717 1.42 1.42 0 0 0-.909-.259 1.647 1.647 0 0 0-.991.231.667.667 0 0 0-.3.537.555.555 0 0 0 .123.353.893.893 0 0 0 .387.269q.15.056.89.257a12.436 12.436 0 0 1 1.492.468 1.52 1.52 0 0 1 .664.529 1.478 1.478 0 0 1 .241.863 1.694 1.694 0 0 1-.294.949 1.9 1.9 0 0 1-.848.689 3.077 3.077 0 0 1-1.255.243 2.8 2.8 0 0 1-1.767-.48 2.24 2.24 0 0 1-.775-1.428" transform="translate(6.139 .609)" style="fill:#fff"/><path data-name="Pfad 223" d="m56.961 10.257.145.89a3.749 3.749 0 0 1-.762.09 1.733 1.733 0 0 1-.851-.173.972.972 0 0 1-.425-.457 3.609 3.609 0 0 1-.123-1.189V6h-.739v-.788h.739V3.74l1-.605v2.077h1.014V6h-1.011v3.473a1.779 1.779 0 0 0 .053.555.419.419 0 0 0 .174.2.67.67 0 0 0 .344.073 3.339 3.339 0 0 0 .442-.039" transform="translate(6.785 .393)" style="fill:#fff"/><path data-name="Pfad 224" d="M61.082 11.195V6.032h-.89v-.784h.89v-.632a2.738 2.738 0 0 1 .107-.89 1.282 1.282 0 0 1 .511-.636 1.847 1.847 0 0 1 1.027-.243 4.994 4.994 0 0 1 .941.1l-.152.88a3.283 3.283 0 0 0-.593-.056.883.883 0 0 0-.649.2 1.06 1.06 0 0 0-.19.734v.548h1.159v.784h-1.158v5.162z" transform="translate(7.534 .357)" style="fill:#fff"/><path data-name="Pfad 225" d="M63.247 7.97a3.065 3.065 0 0 1 .918-2.447 2.771 2.771 0 0 1 1.87-.66 2.668 2.668 0 0 1 2.005.8 3.058 3.058 0 0 1 .779 2.22 3.951 3.951 0 0 1-.344 1.806 2.431 2.431 0 0 1-1 1.022 2.914 2.914 0 0 1-1.437.363 2.673 2.673 0 0 1-2.017-.8 3.194 3.194 0 0 1-.771-2.307m1.036 0a2.532 2.532 0 0 0 .5 1.71 1.659 1.659 0 0 0 2.5 0 2.6 2.6 0 0 0 .5-1.742 2.455 2.455 0 0 0-.5-1.671 1.662 1.662 0 0 0-2.5 0 2.523 2.523 0 0 0-.5 1.708" transform="translate(7.917 .609)" style="fill:#fff"/><path data-name="Pfad 226" d="M69.432 10.942V5h.907v.9a2.481 2.481 0 0 1 .641-.834 1.123 1.123 0 0 1 .647-.2 1.962 1.962 0 0 1 1.035.325l-.347.935a1.436 1.436 0 0 0-.739-.218.959.959 0 0 0-.594.2 1.072 1.072 0 0 0-.375.552 3.9 3.9 0 0 0-.168 1.175v3.113z" transform="translate(8.691 .609)" style="fill:#fff"/><path data-name="Pfad 227" d="m75.716 9.168 1-.158a1.4 1.4 0 0 0 .467.919 1.63 1.63 0 0 0 1.072.318 1.581 1.581 0 0 0 1.031-.282.846.846 0 0 0 .335-.664.615.615 0 0 0-.3-.538 4.455 4.455 0 0 0-1.031-.341 9.441 9.441 0 0 1-1.537-.484 1.47 1.47 0 0 1-.871-1.364 1.532 1.532 0 0 1 .182-.737 1.626 1.626 0 0 1 .5-.561 2.1 2.1 0 0 1 .641-.295 3.068 3.068 0 0 1 .871-.12 3.451 3.451 0 0 1 1.229.2 1.664 1.664 0 0 1 .781.547 2.121 2.121 0 0 1 .348.92l-.986.135a1.074 1.074 0 0 0-.389-.717 1.42 1.42 0 0 0-.909-.259 1.647 1.647 0 0 0-.991.231.667.667 0 0 0-.3.537.555.555 0 0 0 .123.353.893.893 0 0 0 .387.269q.15.056.89.257a12.437 12.437 0 0 1 1.491.466 1.52 1.52 0 0 1 .664.529 1.478 1.478 0 0 1 .241.863 1.694 1.694 0 0 1-.294.949 1.9 1.9 0 0 1-.848.689 3.077 3.077 0 0 1-1.255.243 2.8 2.8 0 0 1-1.767-.48 2.24 2.24 0 0 1-.775-1.428" transform="translate(9.477 .609)" style="fill:#fff"/><path data-name="Pfad 228" d="M85.273 10.928v-.873a2.175 2.175 0 0 1-1.887 1.007 2.39 2.39 0 0 1-.982-.2 1.607 1.607 0 0 1-.677-.506 1.9 1.9 0 0 1-.312-.747 5.2 5.2 0 0 1-.061-.942V4.981h1.007v3.3a5.931 5.931 0 0 0 .062 1.064 1.055 1.055 0 0 0 .4.624 1.253 1.253 0 0 0 .762.226 1.658 1.658 0 0 0 .852-.232A1.3 1.3 0 0 0 85 9.33a3.206 3.206 0 0 0 .164-1.162V4.981h1.008v5.947z" transform="translate(10.183 .624)" style="fill:#fff"/><path data-name="Pfad 229" d="m91.16 8.765.991.128a2.577 2.577 0 0 1-.831 1.6 2.42 2.42 0 0 1-1.644.579 2.553 2.553 0 0 1-1.962-.8 3.24 3.24 0 0 1-.741-2.287 4.135 4.135 0 0 1 .318-1.684 2.229 2.229 0 0 1 .972-1.084 2.88 2.88 0 0 1 1.419-.361 2.471 2.471 0 0 1 1.585.489 2.252 2.252 0 0 1 .789 1.392l-.98.151a1.624 1.624 0 0 0-.5-.9 1.284 1.284 0 0 0-.86-.3 1.564 1.564 0 0 0-1.238.547 2.589 2.589 0 0 0-.476 1.726 2.672 2.672 0 0 0 .46 1.742 1.49 1.49 0 0 0 1.2.543 1.41 1.41 0 0 0 .991-.365 1.8 1.8 0 0 0 .5-1.12" transform="translate(10.886 .609)" style="fill:#fff"/><path data-name="Pfad 230" d="m96.459 8.765.991.128a2.577 2.577 0 0 1-.831 1.6 2.42 2.42 0 0 1-1.644.579 2.553 2.553 0 0 1-1.962-.8 3.24 3.24 0 0 1-.741-2.287 4.135 4.135 0 0 1 .318-1.684 2.229 2.229 0 0 1 .972-1.084 2.88 2.88 0 0 1 1.419-.361 2.471 2.471 0 0 1 1.585.489 2.252 2.252 0 0 1 .789 1.392l-.98.151a1.623 1.623 0 0 0-.5-.9 1.284 1.284 0 0 0-.86-.3 1.564 1.564 0 0 0-1.238.547 2.589 2.589 0 0 0-.476 1.726 2.672 2.672 0 0 0 .46 1.742 1.49 1.49 0 0 0 1.2.543 1.41 1.41 0 0 0 .991-.365 1.8 1.8 0 0 0 .5-1.12" transform="translate(11.55 .609)" style="fill:#fff"/><path data-name="Pfad 231" d="m101.952 9.028 1.041.128a2.54 2.54 0 0 1-.913 1.417 3.091 3.091 0 0 1-3.77-.3 3.139 3.139 0 0 1-.764-2.254 3.285 3.285 0 0 1 .773-2.329 2.612 2.612 0 0 1 2-.828 2.542 2.542 0 0 1 1.949.811 3.225 3.225 0 0 1 .755 2.284c0 .06 0 .15-.006.269h-4.43a2.287 2.287 0 0 0 .555 1.5 1.651 1.651 0 0 0 1.243.521 1.549 1.549 0 0 0 .946-.291 1.937 1.937 0 0 0 .621-.929M98.643 7.4h3.32a2.02 2.02 0 0 0-.38-1.125 1.548 1.548 0 0 0-1.249-.583 1.6 1.6 0 0 0-1.168.465 1.844 1.844 0 0 0-.523 1.243" transform="translate(12.21 .609)" style="fill:#fff"/><path data-name="Pfad 232" d="m103.347 9.168 1-.158a1.4 1.4 0 0 0 .467.919 1.63 1.63 0 0 0 1.072.318 1.581 1.581 0 0 0 1.031-.282.846.846 0 0 0 .335-.664.615.615 0 0 0-.3-.538 4.455 4.455 0 0 0-1.031-.341 9.441 9.441 0 0 1-1.537-.484 1.47 1.47 0 0 1-.871-1.364 1.532 1.532 0 0 1 .182-.737 1.626 1.626 0 0 1 .5-.561 2.1 2.1 0 0 1 .641-.295 3.068 3.068 0 0 1 .871-.12 3.451 3.451 0 0 1 1.229.2 1.664 1.664 0 0 1 .781.547 2.121 2.121 0 0 1 .348.92l-.986.135a1.074 1.074 0 0 0-.389-.717 1.42 1.42 0 0 0-.909-.259 1.647 1.647 0 0 0-.991.231.667.667 0 0 0-.3.537.555.555 0 0 0 .123.353.893.893 0 0 0 .387.272q.15.056.89.257a12.436 12.436 0 0 1 1.492.468 1.52 1.52 0 0 1 .664.529 1.478 1.478 0 0 1 .241.863 1.694 1.694 0 0 1-.294.949 1.9 1.9 0 0 1-.848.689 3.077 3.077 0 0 1-1.255.243 2.8 2.8 0 0 1-1.767-.48 2.24 2.24 0 0 1-.775-1.428" transform="translate(12.936 .609)" style="fill:#fff"/><path data-name="Pfad 233" d="m108.647 9.168 1-.158a1.4 1.4 0 0 0 .467.919 1.63 1.63 0 0 0 1.072.318 1.581 1.581 0 0 0 1.031-.282.846.846 0 0 0 .335-.664.615.615 0 0 0-.3-.538 4.455 4.455 0 0 0-1.031-.341 9.441 9.441 0 0 1-1.537-.484 1.47 1.47 0 0 1-.871-1.364 1.532 1.532 0 0 1 .187-.735 1.626 1.626 0 0 1 .5-.561 2.1 2.1 0 0 1 .641-.295 3.068 3.068 0 0 1 .871-.12 3.451 3.451 0 0 1 1.229.2 1.664 1.664 0 0 1 .781.547 2.121 2.121 0 0 1 .348.92l-.986.135a1.074 1.074 0 0 0-.389-.717 1.42 1.42 0 0 0-.909-.259 1.647 1.647 0 0 0-.991.231.667.667 0 0 0-.3.537.555.555 0 0 0 .123.353.893.893 0 0 0 .387.269q.15.056.89.257a12.436 12.436 0 0 1 1.492.468 1.52 1.52 0 0 1 .664.529 1.478 1.478 0 0 1 .241.863 1.694 1.694 0 0 1-.294.949 1.9 1.9 0 0 1-.848.689 3.078 3.078 0 0 1-1.255.243 2.8 2.8 0 0 1-1.767-.48 2.24 2.24 0 0 1-.775-1.428" transform="translate(13.599 .609)" style="fill:#fff"/><path data-name="Pfad 234" d="M.84 9.228a2.871 2.871 0 1 0 4.06 0 2.87 2.87 0 0 0-4.06 0" transform="translate(0 1.05)" style="fill:#f37021"/><path data-name="Pfad 235" d="M.84.842a2.871 2.871 0 1 0 4.06 0 2.872 2.872 0 0 0-4.06 0" style="fill:#f37021"/><path data-name="Pfad 236" d="M5.056 5.058a2.871 2.871 0 1 0 4.06 0 2.87 2.87 0 0 0-4.06 0" transform="translate(.528 .528)" style="fill:#f37021"/></g></g></symbol><symbol id="logo"><g data-name="Group 1"><path data-name="Path 1" d="M30.52 13.087a5.387 5.387 0 1 0 7.621 0 5.389 5.389 0 0 0-7.621 0" fill="#f37021"/><path data-name="Path 2" d="M14.156 49.465a3.77 3.77 0 1 0 5.332 0 3.773 3.773 0 0 0-5.332 0" fill="#203062"/><path data-name="Path 3" d="M14.156 49.465a3.77 3.77 0 1 0 5.332 0 3.773 3.773 0 0 0-5.332 0" fill="#203062"/><path data-name="Path 4" d="M6.4 6.517a2.089 2.089 0 1 0 2.954 0 2.089 2.089 0 0 0-2.954 0" fill="#203062"/><path data-name="Path 5" d="M15.271.612a2.089 2.089 0 1 0 2.952 0 2.087 2.087 0 0 0-2.952 0" fill="#203062"/><path data-name="Path 6" d="M23.961 6.603a2.09 2.09 0 1 0 2.958 0 2.094 2.094 0 0 0-2.958 0" fill="#203062"/><path data-name="Path 7" d="M49.866 33.049a2.089 2.089 0 1 0 2.956 0 2.09 2.09 0 0 0-2.956 0" fill="#203062"/><path data-name="Path 8" d="M30.52 30.743a5.386 5.386 0 1 0 7.621 0 5.387 5.387 0 0 0-7.621 0" fill="#f37021"/><path data-name="Path 9" d="M39.33 21.929a5.387 5.387 0 1 0 7.621 0 5.389 5.389 0 0 0-7.621 0" fill="#f37021"/><path data-name="Path 10" d="M14.12 31.954a3.773 3.773 0 1 0 5.336 0 3.775 3.775 0 0 0-5.336 0" fill="#203062"/><path data-name="Path 11" d="M31.697 49.478a3.772 3.772 0 1 0 5.336 0 3.773 3.773 0 0 0-5.336 0" fill="#203062"/><path data-name="Path 12" d="M40.364 40.662a3.771 3.771 0 1 0 5.336 0 3.773 3.773 0 0 0-5.336 0" fill="#203062"/><path data-name="Path 13" d="M22.778 40.666a3.771 3.771 0 1 0 5.332 0 3.773 3.773 0 0 0-5.332 0" fill="#203062"/><path data-name="Path 14" d="M22.778 23.088a3.771 3.771 0 1 0 5.332 0 3.773 3.773 0 0 0-5.332 0" fill="#203062"/><path data-name="Path 15" d="M5.238 40.691a3.772 3.772 0 1 0 5.332 0 3.769 3.769 0 0 0-5.332 0" fill="#203062"/><path data-name="Path 16" d="M14.162 14.18a3.773 3.773 0 1 0 5.332 0 3.772 3.772 0 0 0-5.332 0" fill="#203062"/><path data-name="Path 17" d="M.422 33.534a1.436 1.436 0 1 0 2.03 0 1.437 1.437 0 0 0-2.03 0" fill="#203062"/><path data-name="Path 18" d="M.421 15.876a1.436 1.436 0 1 0 2.028 0 1.439 1.439 0 0 0-2.028 0" fill="#203062"/><path data-name="Path 19" d="M6.388 24.305a2.089 2.089 0 1 0 2.958 0 2.092 2.092 0 0 0-2.958 0" fill="#203062"/><path data-name="Path 20" d="M49.873 15.39a2.089 2.089 0 1 0 2.956 0 2.087 2.087 0 0 0-2.956 0" fill="#203062"/><path data-name="Path 21" d="M41.638 6.702a2.09 2.09 0 1 0 2.956 0 2.09 2.09 0 0 0-2.956 0" fill="#203062"/><path data-name="Path 22" d="M32.884.616a2.089 2.089 0 1 0 2.954 0 2.09 2.09 0 0 0-2.954 0" fill="#203062"/><path data-name="Path 23" d="M31.697 49.478a3.772 3.772 0 1 0 5.336 0 3.773 3.773 0 0 0-5.336 0" fill="#203062"/><path data-name="Path 24" d="M40.364 40.662a3.771 3.771 0 1 0 5.336 0 3.773 3.773 0 0 0-5.336 0" fill="#203062"/><path data-name="Path 25" d="M22.778 40.666a3.771 3.771 0 1 0 5.332 0 3.773 3.773 0 0 0-5.332 0" fill="#203062"/><path data-name="Path 26" d="M5.238 40.691a3.772 3.772 0 1 0 5.332 0 3.769 3.769 0 0 0-5.332 0" fill="#203062"/><path data-name="Path 27" d="M154.319 50.492c-.556 1.209-1.064 2.349-1.6 3.476a86.899 86.899 0 0 1-1.548 3.119 259.225 259.225 0 0 1-3.07 5.687c-.736 1.318-1.551 2.6-2.329 3.893-.629 1.044-1.238 2.1-1.894 3.128-1.026 1.611-2.041 3.235-3.146 4.794a41.289 41.289 0 0 1-3.4 4.417 7.487 7.487 0 0 1-6.041 2.374c-2.117-.1-3.382-.895-3.9-3.188-.33-1.47-.52-2.974-.734-4.466-.29-2.041-.535-4.085-.819-6.126-.19-1.37-.379-2.742-.625-4.1q-.432-2.393-.964-4.765c-.39-1.751-.8-3.5-1.265-5.227-.361-1.343-.812-2.664-1.26-3.984-.576-1.691-1.147-3.382-1.791-5.049-.573-1.477-1.243-2.916-1.876-4.368a27.516 27.516 0 0 0-1.394-3.088 16.764 16.764 0 0 0-2.222-3.025 11.114 11.114 0 0 0-4.886-2.546c-1.165-.379-2.166-1-1.9-2.289a2.339 2.339 0 0 1 .964-1.323c2.021-1.3 4.326-1.4 6.637-1.345a13.945 13.945 0 0 1 7.92 2.14 18.424 18.424 0 0 1 3.175 3.054 14.305 14.305 0 0 1 1.812 2.751c.672 1.269 1.214 2.606 1.816 3.913.337.73.712 1.446 1.015 2.189.656 1.606 1.283 3.226 1.914 4.841.379.97.783 1.934 1.111 2.923q.883 2.67 1.68 5.37.639 2.168 1.169 4.37c.268 1.115.462 2.251.667 3.382q.539 2.962 1.053 5.928c.071.417.125.837.17 1.26.007.076.033.2.116.212s.181-.107.214-.185c.794-1.939 1.611-3.868 2.363-5.825a141.064 141.064 0 0 0 1.925-5.356c.518-1.508 1.049-3.021 1.439-4.567.607-2.4 1.131-4.817 1.631-7.237a33.358 33.358 0 0 0 .825-8.62 13.366 13.366 0 0 0-1.12-4.834 13.542 13.542 0 0 0-2.8-4.022c-.259-.259-.129-.375.194-.511a14.869 14.869 0 0 1 6.611-1.16 8.538 8.538 0 0 1 6.668 3.355 8.9 8.9 0 0 1 1.778 6.793 54.662 54.662 0 0 1-1.282 5.852 21.215 21.215 0 0 1-.805 2.465c-.1.277.192.6.368.9 1.214 2.012 2.483 3.991 3.657 6.024.933 1.613 1.783 3.275 2.621 4.939.944 1.872 1.883 3.748 2.735 5.664 1.044 2.354 2.073 4.716 2.989 7.123.027.069.245.678.335.678.123 0 .154-.051.306-.41.663-1.584 1.307-3.168 1.974-4.759.509-1.214 1.051-2.414 1.492-3.652.785-2.191 1.539-4.4 2.247-6.615a81.98 81.98 0 0 0 1.437-5.066 57.74 57.74 0 0 0 .9-4.469c.317-1.932.665-3.871.788-5.818a19.708 19.708 0 0 0-.3-4.31 12.677 12.677 0 0 0-.991-3.266 13.677 13.677 0 0 0-1.78-2.8c-.259-.326-.58-.645-.877-.984a.246.246 0 0 1 .112-.426 19.611 19.611 0 0 1 3.344-.962 15.125 15.125 0 0 1 3.358-.257 8.588 8.588 0 0 1 8.455 8.223 17.2 17.2 0 0 1-.861 6.452c-.709 2.186-1.441 4.368-2.258 6.514-.535 1.405-1.227 2.753-1.867 4.118-.743 1.577-1.479 3.159-2.276 4.712-.7 1.363-1.466 2.695-2.226 4.027q-1.339 2.336-2.722 4.643c-.944 1.568-1.9 3.132-2.891 4.672-1.069 1.662-2.142 3.329-3.293 4.935a40.059 40.059 0 0 1-3.306 4.2 7.075 7.075 0 0 1-4.054 2.2 8.122 8.122 0 0 1-3.976-.158 3.26 3.26 0 0 1-2.253-2.858c-.279-2.367-.377-4.754-.538-7.132-.132-1.941-.2-3.886-.377-5.823q-.288-3.182-.73-6.354c-.2-1.437-.509-2.862-.79-4.288-.239-1.2-.506-2.4-.767-3.6a3.813 3.813 0 0 0-.183-.493" fill="#203062"/><path data-name="Path 28" d="M80.925 81.387a53.751 53.751 0 0 1-6.856-.515c-4.085-.5-7.929-1.488-11.1-3.663a9.115 9.115 0 0 1-4.163-6.427 9.783 9.783 0 0 1 .77-5.613 6.489 6.489 0 0 1 4.31-3.554 11.428 11.428 0 0 1 5.789-.062c1.14.261 2.224.672 3.34 1.011.3.089.35.223.205.526a18.74 18.74 0 0 0-1.8 5.218 6.435 6.435 0 0 0 .506 4.056 5.967 5.967 0 0 0 3.777 2.833 23.3 23.3 0 0 0 9.049.544 13.912 13.912 0 0 0 5.135-1.383 6.407 6.407 0 0 0 3.42-4.056 6.115 6.115 0 0 0-1.789-6.327 21.031 21.031 0 0 0-6.095-4.038c-3.42-1.647-6.86-3.222-10.227-4.879a29.988 29.988 0 0 1-7.387-4.89 11.747 11.747 0 0 1-3.73-6.273c-1.128-5.837 1.608-11.595 7.45-14.899a24.914 24.914 0 0 1 6.231-2.481 37.752 37.752 0 0 1 12.616-.863 32.532 32.532 0 0 1 6.064 1.051 18.365 18.365 0 0 1 7.59 3.853 8.5 8.5 0 0 1 2.916 5.169 7.484 7.484 0 0 1-.689 4.745 5.092 5.092 0 0 1-3.239 2.521 7.4 7.4 0 0 1-3.942.074 4.718 4.718 0 0 1-3.293-3.317c-.384-1.091-.645-2.231-1-3.333a7.348 7.348 0 0 0-5.089-5 15.659 15.659 0 0 0-8.1-.149 6.853 6.853 0 0 0-3.779 2.081 5.381 5.381 0 0 0-1.318 4.321 6.61 6.61 0 0 0 2.53 4.321 24.187 24.187 0 0 0 5.707 3.494c3.137 1.472 6.331 2.885 9.49 4.384a32.724 32.724 0 0 1 7.724 4.85 13.815 13.815 0 0 1 4.279 6.141 12.723 12.723 0 0 1 .4 6.133 13.263 13.263 0 0 1-2.8 6.271 18.986 18.986 0 0 1-7.853 5.457 33.035 33.035 0 0 1-8.252 2.113 58.562 58.562 0 0 1-6.8.558" fill="#203062"/></g></symbol><symbol id="search" viewBox="0 0 512 512"><!--! Font Awesome Pro 6.2.0 by @fontawesome - https://fontawesome.com License - https://fontawesome.com/license (Commercial License) Copyright 2022 Fonticons, Inc.--><path d="M416 208c0 45.9-14.9 88.3-40 122.7l126.6 126.7c12.5 12.5 12.5 32.8 0 45.3s-32.8 12.5-45.3 0L330.7 376c-34.4 25.2-76.8 40-122.7 40C93.1 416 0 322.9 0 208S93.1 0 208 0s208 93.1 208 208zM208 352c79.5 0 144-64.5 144-144S287.5 64 208 64 64 128.5 64 208s64.5 144 144 144z"/></symbol><symbol id="twitter" viewBox="0 0 512 415.84"><path d="M459.37 103.63c.33 4.55.33 9.1.33 13.65 0 138.72-105.58 298.56-298.56 298.56-59.45 0-114.68-17.22-161.14-47.11 8.45.97 16.57 1.3 25.34 1.3 49.06 0 94.21-16.57 130.27-44.83-46.13-.98-84.79-31.19-98.11-72.77 6.5.97 13 1.62 19.82 1.62 9.42 0 18.84-1.3 27.61-3.57-48.08-9.75-84.14-51.98-84.14-102.99v-1.3c13.97 7.8 30.21 12.67 47.43 13.32-28.26-18.84-46.78-51.01-46.78-87.39 0-19.49 5.2-37.36 14.29-52.95 51.65 63.68 129.3 105.26 216.37 109.81-1.62-7.8-2.6-15.92-2.6-24.04C249.5 47.11 296.28 0 354.43 0c30.21 0 57.5 12.67 76.67 33.14 23.71-4.55 46.46-13.32 66.6-25.34-7.8 24.37-24.37 44.83-46.13 57.83 21.12-2.27 41.58-8.12 60.43-16.24-14.29 20.79-32.16 39.31-52.63 54.25Z"/></symbol><symbol id="xing" viewBox="0 0 383.97 448.1"><path d="M162.67 178c-1.8 3.3-25.2 44.4-70.1 123.5-4.9 8.3-10.8 12.5-17.7 12.5H9.77c-7.7 0-12.1-7.5-8.5-14.4l69-121.3c.2 0 .2-.1 0-.3l-43.9-75.6c-4.3-7.8.3-14.1 8.5-14.1h65.1c7.3 0 13.3 4.1 18 12.2l44.7 77.5Zm219.9-163.9-144 253v.3l91.6 166.6c3.9 7.1.2 14.1-8.5 14.1h-65.2c-7.6 0-13.6-4-18-12.2l-92.4-168.5c3.3-5.8 51.5-90.8 144.8-255.2 4.6-8.1 10.4-12.2 17.5-12.2h65.7c8 0 12.3 6.7 8.5 14.1Z"/></symbol><symbol id="youtube" viewBox="0 0 546.13 384"><path d="M534.72 60.08c-6.28-23.65-24.79-42.28-48.28-48.6C443.85 0 273.07 0 273.07 0S102.29 0 59.7 11.49c-23.5 6.32-42 24.95-48.28 48.6C0 102.95 0 192.39 0 192.39s0 89.44 11.41 132.3c6.28 23.65 24.79 41.5 48.28 47.82C102.28 384 273.06 384 273.06 384s170.78 0 213.37-11.49c23.5-6.32 42-24.17 48.28-47.82 11.41-42.87 11.41-132.3 11.41-132.3s0-89.44-11.41-132.31ZM217.21 273.59V111.18l142.74 81.21-142.74 81.2Z"/></symbol></svg>